<svg id="Layer_2" data-name="Layer 2" xmlns="http://www.w3.org/2000/svg" xmlns:xlink="http://www.w3.org/1999/xlink" viewBox="0 0 279.34 206.29"><defs><style>.cls-1{fill:#dead93;}.cls-2{fill:url(#radial-gradient);}</style><radialGradient id="radial-gradient" cx="128.81" cy="430.46" r="245.87" gradientUnits="userSpaceOnUse"><stop offset="0" stop-color="#b29ccb"/><stop offset="0.2" stop-color="#ab96c8"/><stop offset="0.51" stop-color="#9787c0"/><stop offset="0.87" stop-color="#766eb3"/><stop offset="1" stop-color="#6864ad"/></radialGradient></defs><path class="cls-1" d="M329.87,296.25c0-50.68-22.63-74.35-73.73-68.36-41.6,4.87-39.16,17.44-67.81,21.24A98.73,98.73,0,0,1,156.39,248q-8.5-1.68-17.56-3.5c-73.41-14.88-104.39,30.11-80.2,83.18,36.2,79.43,60.72,105.6,135.62,105.6S329.87,386,329.87,327.67c0-2.93-.08-5.7-.26-8.31a.22.22,0,0,1,0-.08Z" transform="translate(-50.53 -226.98)"/><path class="cls-2" d="M329.87,296.25c0-50.68-22.63-74.35-73.73-68.36-41.6,4.87-39.16,17.44-67.81,21.24A98.73,98.73,0,0,1,156.39,248q-8.5-1.68-17.56-3.5c-73.41-14.88-104.39,30.11-80.2,83.18,36.2,79.43,60.72,105.6,135.62,105.6S329.87,386,329.87,327.67c0-2.93-.08-5.7-.26-8.31a.22.22,0,0,1,0-.08Z" transform="translate(-50.53 -226.98)"/></svg>