<svg xmlns="http://www.w3.org/2000/svg" xmlns:xlink="http://www.w3.org/1999/xlink" width="105" height="155" viewBox="0 0 105 155">
  <defs>
    <clipPath id="clip-central">
      <rect width="105" height="155"/>
    </clipPath>
  </defs>
  <g id="central" clip-path="url(#clip-central)">
    <path id="SGP4871" d="M558.86,75.475l-4.628,6.1-3.838,9.578-1.9,10.223-8.322,3.193-6.349,3.193-7.031,7-3.838,9.578v9.614l1.9,10.188,5.775,9.578,7,10.869,7.031,11.515L547.7,181.4l-10.259,3.946-34.509,23.639-5.7,5.309-6.816-1.829L478.9,208.021l-8.932-5.13-9.578-10.223-2.547-9.578.646-8.286-1.291-12.77,8.322-6.385,8.932-8.932V136.493l-4.484-7.031,5.13-7.677,10.188-5.739,7.677-6.385-1.291-7.677-3.838-7.641-6.385-7.031,2.583-8.322,7.641-7.641L500.6,70.7l12.125.646,11.515-1.291,7.031-8.358L558.86,75.475Z" transform="translate(-455.553 -60.926)" fill="#b79ced" stroke="#fff" stroke-linecap="round" stroke-linejoin="round" stroke-width="2"/>
  </g>
</svg>
