<svg id="Layer_3" data-name="Layer 3" xmlns="http://www.w3.org/2000/svg" viewBox="0 0 125.01 133.26"><defs><style>.cls-1{fill:#dead93;}.cls-2{fill:#471111;}.cls-3,.cls-8{fill:none;stroke-linejoin:round;stroke-width:3px;}.cls-3,.cls-4,.cls-8{stroke:#231f20;}.cls-3{stroke-linecap:round;}.cls-4{fill:#231f20;stroke-miterlimit:10;}.cls-5{fill:#ededed;}.cls-6{fill:#421312;}.cls-7{fill:#fbc3a5;}.cls-9{fill:#0d1127;}.cls-10{fill:#1b1c24;}</style></defs><path class="cls-1" d="M135.43,385c.09.6-3.86,3.83-5.33,2.61a1.52,1.52,0,0,1-.45-.79c-.72-2.95-13.75-10.48-19.64-16.35s5.08-11.91,5.08-11.91h0c.33.21,6,4,5,6.22a.59.59,0,0,0,0,.13,52.86,52.86,0,0,1-1.76,6.56.5.5,0,0,0,.11.61c1.28,1.08,5.79,4.61,10.1,5a.49.49,0,0,1,.32.16C132.3,381.21,135.4,384.65,135.43,385Z" transform="translate(-52.63 -295.9)"/><path class="cls-2" d="M137.94,387.83s-7.71,8.41-10.3,8.95-2.23-4.33-1.69-4.27,4.15-4.95,4.15-4.95c1.47,1.22,5.42-2,5.33-2.61A2.42,2.42,0,0,1,137.94,387.83Z" transform="translate(-52.63 -295.9)"/><circle class="cls-3" cx="100.26" cy="108.11" r="23.24"/><circle class="cls-3" cx="24.74" cy="108.52" r="23.24"/><polygon class="cls-3" points="100.27 108.42 68.42 112.84 74.88 88.17 100.27 108.42"/><circle class="cls-4" cx="68.42" cy="112.84" r="4.32"/><path class="cls-1" d="M118.72,337.3l-3.34,5.23s-3.31,4.32-4.93,5-10.28,5-10.6,5.41-3.76,2.58-3.73,3.5-2.89,1.38-3.13.39c4.56-3,14.59-10,15.2-13,.72-3.63,5.44-9.23,6.28-10.2.33.11.68.24,1,.38A8.35,8.35,0,0,1,118.72,337.3Z" transform="translate(-52.63 -295.9)"/><path class="cls-5" d="M143.81,349.45c-3.69,3.83-19.51,1.84-19.51,1.84s-2.34-8.86-5.58-14a8.35,8.35,0,0,0-3.24-3.31c-.33-.14-.68-.27-1-.38l-.26-.09a13.49,13.49,0,0,0-1.32-.34l-.39-.07c-.64-.09-1.37-.16-2.12-.2a2.17,2.17,0,0,0-.36,0,14.78,14.78,0,0,0-4,.54l0,0c.74-8.39,4.22-15.07,5-15,2.26.27,6.28-2.85,6.28-2.85s.1-1,2.16-1c10.75-.4,24.29,23.85,24.89,32.32A3.27,3.27,0,0,1,143.81,349.45Z" transform="translate(-52.63 -295.9)"/><path class="cls-6" d="M117.27,309.08a11.37,11.37,0,0,1-1.41,5.53l-2.33-1.43a2.69,2.69,0,0,1-.27-.44L111.8,310a3.44,3.44,0,0,0,1-1.82c0-.84-.67-2-1.48-2-1.3,0-1.62,1.83-1.62,1.83l-.89,0-3.53-5.16-6,1.53a4.52,4.52,0,0,1-2.21-3.93s2.17.51,3-1,3.85-3.58,7.06-3.58,6.68,1.41,6.68,3.4C113.89,299.3,117.27,301.59,117.27,309.08Z" transform="translate(-52.63 -295.9)"/><path class="cls-7" d="M117.27,315.63s-3.21,3.83-6.28,2.85l-.34-1.34s-4.16.27-5,.18-2.28.75-4.15-5L99.75,312l.58-3.46a12.8,12.8,0,0,0-1-4.1l6-1.53L108.8,308l.89,0s.32-1.83,1.62-1.83c.81,0,1.48,1.13,1.48,2a3.44,3.44,0,0,1-1,1.82l1.46,2.78a2.69,2.69,0,0,0,.27.44l2.33,1.43Z" transform="translate(-52.63 -295.9)"/><path class="cls-3" d="M121.05,408.74S97.29,379.3,89.34,375.23l1-2.85c15.64,6.46,27.11,14.7,34.48,21.77Z" transform="translate(-52.63 -295.9)"/><polyline class="cls-3" points="43.92 61.01 37.64 61.01 40.92 68.71 24.75 108.52"/><path class="cls-7" d="M114.47,333.61c-.84,1-5.56,6.57-6.28,10.2-.61,3.06-10.64,10-15.2,13-1.35.9-2.22,1.45-2.22,1.45a3.77,3.77,0,0,1-3.93-1.67c-.54-1.51,2.86-2.7,2.86-2.7s11.27-13.06,13.23-14.58,3-5.89,3-5.89l0,0a14.78,14.78,0,0,1,4-.54,2.17,2.17,0,0,1,.36,0c.75,0,1.48.11,2.12.2l.39.07a13.49,13.49,0,0,1,1.32.34Z" transform="translate(-52.63 -295.9)"/><line class="cls-8" x1="81.15" y1="64.21" x2="68.42" y2="112.84"/><path class="cls-9" d="M144.86,354.67c2.29-.33,3.66,1.54,3.44,2.69s-4.57,3.75-6,3.52S141.68,355.14,144.86,354.67Z" transform="translate(-52.63 -295.9)"/><path class="cls-10" d="M140.55,362.15c-2.56.56-11.56,15-11.56,15h-.24c-5.16-.39-10.65-5.36-10.65-5.36.48.08,1.8-5.91,2-6.86a.59.59,0,0,1,0-.13c.94-2.26-4.7-6-5-6.22h0l9.21-7.22s15.82,2,19.51-1.84a3.27,3.27,0,0,0,.51-2.5C146.74,354,143.09,361.58,140.55,362.15Z" transform="translate(-52.63 -295.9)"/><path class="cls-7" d="M124.52,387.2c.41,1.77,4,23.8,2.32,24.92a12.29,12.29,0,0,1-3.76,1.14,2.16,2.16,0,0,1-2.64-1.64c-.73-5.82-2.63-19.84-4.42-24-2.28-5.31-.66-9-.66-9l3.36-6.35s7.44.18,9.49,4.77C120.89,382.88,124.1,385.42,124.52,387.2Z" transform="translate(-52.63 -295.9)"/><path class="cls-2" d="M130.08,416.54c-.2,1.3-14,7.59-18.27,6.33s-4.34-3.49-2.68-4.19,10.3-5.77,11.31-7.06a2.16,2.16,0,0,0,2.64,1.64,12.29,12.29,0,0,0,3.76-1.14S130.26,415.25,130.08,416.54Z" transform="translate(-52.63 -295.9)"/></svg>