<svg xmlns="http://www.w3.org/2000/svg" xmlns:xlink="http://www.w3.org/1999/xlink" width="124" height="125" viewBox="0 0 124 125">
  <defs>
    <clipPath id="clip-north">
      <rect width="124" height="125"/>
    </clipPath>
  </defs>
  <g id="north" clip-path="url(#clip-north)">
    <path id="SGP4873" d="M446.882,22.774l-7.031,8.358-11.515,1.291-12.125-.646-8.932.646-7.641,7.641-2.583,8.322,6.385,7.031,3.838,7.641,1.291,7.677-7.677,6.385-10.188,5.739-5.13,7.677,4.484,7.031V107.79l-8.932,8.932-8.322,6.385-8.286-8.932-7.677-6.385-7.641-2.583-1.9-4.448,3.8-3.838,3.838-4.484-.646-6.385-9.578-7.641-7-5.775-7.031-6.995L325.6,58.61V47.1l.61-8.286,1.937-10.869,1.148-9.506L356.737,5.3,371.444,1l26.222,1.542,25.29,8.251,23.926,11.981Z" transform="translate(-324.16)" fill="#b79ced" stroke="#fff" stroke-linecap="round" stroke-linejoin="round" stroke-width="2"/>
  </g>
</svg>
