<svg xmlns="http://www.w3.org/2000/svg" xmlns:xlink="http://www.w3.org/1999/xlink" width="358" height="181.87" viewBox="0 0 358 181.87">
  <defs>
    <clipPath id="clip-sg">
      <rect width="358" height="181.87"/>
    </clipPath>
  </defs>
  <g id="sg" clip-path="url(#clip-sg)">
    <g id="sg-2" data-name="sg">
      <path id="SGP4871" d="M558.86,75.475l-4.628,6.1-3.838,9.578-1.9,10.223-8.322,3.193-6.349,3.193-7.031,7-3.838,9.578v9.614l1.9,10.188,5.775,9.578,7,10.869,7.031,11.515L547.7,181.4l-10.259,3.946-34.509,23.639-5.7,5.309-6.816-1.829L478.9,208.021l-8.932-5.13-9.578-10.223-2.547-9.578.646-8.286-1.291-12.77,8.322-6.385,8.932-8.932V136.493l-4.484-7.031,5.13-7.677,10.188-5.739,7.677-6.385-1.291-7.677-3.838-7.641-6.385-7.031,2.583-8.322,7.641-7.641L500.6,70.7l12.125.646,11.515-1.291,7.031-8.358L558.86,75.475Z" transform="translate(-293.553 -39.926)" fill="#b79ced" stroke="#fff" stroke-linecap="round" stroke-linejoin="round" stroke-width="2"/>
      <path id="SGP4872" d="M164.647,154.274l1.291,12.77-.646,8.286,2.547,9.578,9.578,10.223,8.932,5.13,11.515,4.448,6.816,1.829-2.8,3.372-5.166,2.188-12.663,1.937-24.07-.466-11.874-3.049-5.058-5.919-8.43-13.524-20.483-9.4L89.532,175.94l-21.128-2.3-42.831,1.112L8.139,170.524,1,156.857l4.269-15.568L34.719,99.569l4.233-18.653,4.914-10.51,11.049-11.3,13.093-7.964,9.47-1.542L99,52.4l22.133-2.8-1.148,9.506L118.05,69.975l-.61,8.286V89.776l5.094,7.031,7.031,6.995,6.995,5.775,9.578,7.641.646,6.385-3.838,4.484-3.8,3.838,1.9,4.448,7.641,2.583,7.677,6.385,8.286,8.932Z" transform="translate(-1 -32.166)" fill="#b79ced" stroke="#fff" stroke-linecap="round" stroke-linejoin="round" stroke-width="2"/>
      <path id="SGP4873" d="M446.882,22.774l-7.031,8.358-11.515,1.291-12.125-.646-8.932.646-7.641,7.641-2.583,8.322,6.385,7.031,3.838,7.641,1.291,7.677-7.677,6.385-10.188,5.739-5.13,7.677,4.484,7.031V107.79l-8.932,8.932-8.322,6.385-8.286-8.932-7.677-6.385-7.641-2.583-1.9-4.448,3.8-3.838,3.838-4.484-.646-6.385-9.578-7.641-7-5.775-7.031-6.995L325.6,58.61V47.1l.61-8.286,1.937-10.869,1.148-9.506L356.737,5.3,371.444,1l26.222,1.542,25.29,8.251,23.926,11.981Z" transform="translate(-209.16 -1)" fill="#b79ced" stroke="#fff" stroke-linecap="round" stroke-linejoin="round" stroke-width="2"/>
      <g id="Group_6" data-name="Group 6" transform="translate(229.4 35.549)">
        <path id="SGP4874" d="M775.359,122.448l-3.408,6.744-7.677,6.385-8.932,3.8v7.677l-3.193,10.869H745.12l-5.094-4.484-12.77-5.74-10.833-3.838-8.322-6.385L709.391,126l1.9-10.223,3.838-9.578,4.628-6.1,22.707,11.335,27.944,9.9,4.95,1.112Z" transform="translate(-683.851 -100.1)" fill="#b79ced" stroke="#fff" stroke-linecap="round" stroke-linejoin="round" stroke-width="2"/>
        <path id="SGP4875" d="M665.252,245.981l-3.049-5.309-7.031-11.515-6.995-10.869L642.4,208.71l-1.9-10.188v-9.614l3.838-9.578,7.031-7,6.349-3.193,8.322-3.193-1.291,11.479,8.322,6.385,10.833,3.838,12.77,5.739,5.094,4.484H708.8l3.193-10.869v-7.677l8.932-3.8,7.677-6.385,3.408-6.744,19.586,4.448,13.667,5.058,3.838,6.062L757.693,196.98l-16.752,20.2-20.232,16.106-22.133,6.565-24.321,2.69Z" transform="translate(-640.5 -140.052)" fill="#b79ced" stroke="#fff" stroke-linecap="round" stroke-linejoin="round" stroke-width="2"/>
      </g>
      <ellipse id="_0" data-name="0" transform="translate(97.392 105.822)" fill="#b79ced" stroke="#fff" stroke-linecap="round" stroke-linejoin="round" stroke-width="2"/>
      <ellipse id="_1" data-name="1" transform="translate(256.017 130.215)" fill="#b79ced" stroke="#fff" stroke-linecap="round" stroke-linejoin="round" stroke-width="2"/>
      <ellipse id="_2" data-name="2" transform="translate(75.223 97.32)" fill="#b79ced" stroke="#fff" stroke-linecap="round" stroke-linejoin="round" stroke-width="2"/>
    </g>
  </g>
</svg>
