<svg xmlns="http://www.w3.org/2000/svg" xmlns:xlink="http://www.w3.org/1999/xlink" width="131" height="86" viewBox="0 0 131 86">
  <defs>
    <clipPath id="clip-southEast">
      <rect width="131" height="86"/>
    </clipPath>
  </defs>
  <g id="southEast" clip-path="url(#clip-southEast)">
    <g id="Group_6" data-name="Group 6" transform="translate(1.4 -21.451)">
      <path id="SGP4875" d="M665.252,245.981l-3.049-5.309-7.031-11.515-6.995-10.869L642.4,208.71l-1.9-10.188v-9.614l3.838-9.578,7.031-7,6.349-3.193,8.322-3.193-1.291,11.479,8.322,6.385,10.833,3.838,12.77,5.739,5.094,4.484H708.8l3.193-10.869v-7.677l8.932-3.8,7.677-6.385,3.408-6.744,19.586,4.448,13.667,5.058,3.838,6.062L757.693,196.98l-16.752,20.2-20.232,16.106-22.133,6.565-24.321,2.69Z" transform="translate(-640.5 -140.052)" fill="#b79ced" stroke="#fff" stroke-linecap="round" stroke-linejoin="round" stroke-width="2"/>
    </g>
  </g>
</svg>
