<svg xmlns="http://www.w3.org/2000/svg" width="24.817" height="26.409" viewBox="0 0 24.817 26.409">
  <g id="Subtraction_1" data-name="Subtraction 1" transform="translate(-154.092 1037.409)" fill="#fff">
    <path d="M 162.9997863769531 -1011.999633789063 L 160.1433258056641 -1011.999694824219 C 159.5915374755859 -1011.999694824219 159.1426239013672 -1012.448181152344 159.1426239013672 -1012.99951171875 L 159.1426239013672 -1021.285827636719 L 159.1426239013672 -1022.285827636719 L 158.1426239013672 -1022.285827636719 L 155.0933990478516 -1022.285827636719 L 166.5003204345703 -1036.408325195313 L 177.9067230224609 -1022.2861328125 L 174.8574066162109 -1022.285827636719 L 173.8574066162109 -1022.285827636719 L 173.8574066162109 -1021.285827636719 L 173.857421875 -1012.99951171875 C 173.857421875 -1012.448181152344 173.4089050292969 -1011.999694824219 172.8576049804688 -1011.999694824219 L 170.0001983642578 -1011.999694824219 L 170.0002136230469 -1018.999816894531 C 170.0002136230469 -1020.103088378906 169.1030578613281 -1021.000610351563 168.0003051757813 -1021.000610351563 L 164.9997100830078 -1021.000610351563 C 163.8969573974609 -1021.000610351563 162.9997863769531 -1020.103088378906 162.9997863769531 -1018.999816894531 L 162.9997863769531 -1011.999633789063 Z" stroke="none"/>
    <path d="M 172.8544158935547 -1012.998352050781 C 172.8553771972656 -1012.998901367188 172.8568420410156 -1013.000244140625 172.8573455810547 -1013.000244140625 C 172.8573760986328 -1013.000244140625 172.8573913574219 -1013.000244140625 172.857421875 -1013.000183105469 L 172.8574066162109 -1021.285827636719 L 172.8574066162109 -1023.285827636719 L 174.8574066162109 -1023.285827636719 L 175.8137664794922 -1023.285827636719 L 166.5 -1034.816528320313 L 157.1862487792969 -1023.285827636719 L 158.1426239013672 -1023.285827636719 L 160.1426239013672 -1023.285827636719 L 160.1426239013672 -1021.285827636719 L 160.1426544189453 -1013.001037597656 C 160.1431884765625 -1013.000366210938 160.1436157226563 -1012.999877929688 160.1435852050781 -1012.999694824219 L 161.9997863769531 -1012.999633789063 L 161.9997863769531 -1018.999816894531 C 161.9997863769531 -1020.654479980469 163.3455505371094 -1022.000610351563 164.9997100830078 -1022.000610351563 L 168.0003051757813 -1022.000610351563 C 169.6544647216797 -1022.000610351563 171.0002136230469 -1020.654479980469 171.0002136230469 -1018.999816894531 L 171.0001983642578 -1012.998962402344 L 172.8544158935547 -1012.998352050781 M 163.9997863769531 -1010.999633789063 L 163.9987945556641 -1010.999633789063 L 160.143310546875 -1010.999694824219 C 159.0401306152344 -1010.999694824219 158.1426239013672 -1011.896789550781 158.1426239013672 -1012.99951171875 L 158.1426239013672 -1021.285827636719 L 155.0933990478516 -1021.285827636719 C 154.7042999267578 -1021.285827636719 154.3583831787109 -1021.503845214844 154.1906433105469 -1021.854919433594 C 154.0230560302734 -1022.205627441406 154.0706787109375 -1022.611450195313 154.3149108886719 -1022.913940429688 L 165.7223968505859 -1037.036743164063 C 165.9128723144531 -1037.273071289063 166.1963043212891 -1037.408569335938 166.5000152587891 -1037.408569335938 C 166.8037261962891 -1037.408569335938 167.0871429443359 -1037.273071289063 167.2776031494141 -1037.036743164063 L 178.6851043701172 -1022.913940429688 C 178.9293365478516 -1022.611450195313 178.9769592285156 -1022.205627441406 178.8093872070313 -1021.854919433594 C 178.6416320800781 -1021.503845214844 178.2957000732422 -1021.285827636719 177.9066009521484 -1021.285827636719 L 174.8574066162109 -1021.285827636719 L 174.857421875 -1012.99951171875 C 174.857421875 -1011.896789550781 173.9603118896484 -1010.999694824219 172.8576049804688 -1010.999694824219 L 169.0001983642578 -1010.999694824219 L 169.0002136230469 -1018.999816894531 C 169.0002136230469 -1019.551635742188 168.5516662597656 -1020.000610351563 168.0003051757813 -1020.000610351563 L 164.9997100830078 -1020.000610351563 C 164.4483489990234 -1020.000610351563 163.9997863769531 -1019.551635742188 163.9997863769531 -1018.999816894531 L 163.9997863769531 -1011.000610351563 L 163.9997863769531 -1010.999633789063 Z" stroke="none" fill="#fff"/>
  </g>
</svg>
