<svg xmlns="http://www.w3.org/2000/svg" xmlns:xlink="http://www.w3.org/1999/xlink" viewBox="0 0 294.83 247.94"><defs><style>.cls-1{fill:#dead93;}.cls-2{fill:url(#radial-gradient);}.cls-3{fill:url(#Orange_Yellow);}.cls-4{fill:url(#Orange_Yellow-2);}.cls-5{fill:url(#Orange_Yellow-3);}.cls-6{fill:url(#Orange_Yellow-4);}.cls-7{fill:url(#Orange_Yellow-5);}.cls-8{fill:url(#Orange_Yellow-6);}.cls-9{fill:url(#Orange_Yellow-7);}.cls-10{fill:url(#Orange_Yellow-8);}.cls-11{fill:url(#Orange_Yellow-9);}.cls-12{fill:url(#Orange_Yellow-10);}.cls-13{fill:url(#Orange_Yellow-11);}.cls-14{fill:url(#Orange_Yellow-12);}.cls-15{fill:url(#Orange_Yellow-13);}.cls-16{fill:#471111;}.cls-17,.cls-22{fill:none;stroke-linejoin:round;stroke-width:3px;}.cls-17,.cls-18,.cls-22{stroke:#231f20;}.cls-17{stroke-linecap:round;}.cls-18{fill:#231f20;stroke-miterlimit:10;}.cls-19{fill:#ededed;}.cls-20{fill:#421312;}.cls-21{fill:#fbc3a5;}.cls-23{fill:#0d1127;}.cls-24{fill:#1b1c24;}</style><radialGradient id="radial-gradient" cx="128.81" cy="430.46" r="245.87" gradientUnits="userSpaceOnUse"><stop offset="0" stop-color="#b29ccb"/><stop offset="0.2" stop-color="#ab96c8"/><stop offset="0.51" stop-color="#9787c0"/><stop offset="0.87" stop-color="#766eb3"/><stop offset="1" stop-color="#6864ad"/></radialGradient><linearGradient id="Orange_Yellow" x1="175.45" y1="139.16" x2="230.62" y2="44.44" gradientUnits="userSpaceOnUse"><stop offset="0" stop-color="#fff33b"/><stop offset="0.04" stop-color="#fee72e"/><stop offset="0.12" stop-color="#fed51b"/><stop offset="0.2" stop-color="#fdca10"/><stop offset="0.28" stop-color="#fdc70c"/><stop offset="0.67" stop-color="#f3903f"/><stop offset="0.89" stop-color="#ed683c"/><stop offset="1" stop-color="#e93e3a"/></linearGradient><linearGradient id="Orange_Yellow-2" x1="196.6" y1="180.43" x2="209.47" y2="158.33" xlink:href="#Orange_Yellow"/><linearGradient id="Orange_Yellow-3" x1="236.89" y1="222.81" x2="245.93" y2="207.3" gradientTransform="translate(418.09 -227.19) rotate(90)" xlink:href="#Orange_Yellow"/><linearGradient id="Orange_Yellow-4" x1="322.34" y1="440.96" x2="335.21" y2="418.87" gradientTransform="translate(555.37 -236.98) rotate(90)" xlink:href="#Orange_Yellow"/><linearGradient id="Orange_Yellow-5" x1="312.1" y1="147.6" x2="321.14" y2="132.08" gradientTransform="translate(597.24 231.64) rotate(180)" xlink:href="#Orange_Yellow"/><linearGradient id="Orange_Yellow-6" x1="344.36" y1="479.09" x2="357.22" y2="457" gradientTransform="translate(565.57 677.98) rotate(180)" xlink:href="#Orange_Yellow"/><linearGradient id="Orange_Yellow-7" x1="350.23" y1="125.59" x2="359.27" y2="110.07" gradientTransform="translate(174.53 699.06) rotate(-90)" xlink:href="#Orange_Yellow"/><linearGradient id="Orange_Yellow-8" x1="371.26" y1="561.94" x2="384.13" y2="539.85" gradientTransform="translate(-258.54 587.63) rotate(-90)" xlink:href="#Orange_Yellow"/><linearGradient id="Orange_Yellow-9" x1="433.08" y1="98.68" x2="442.12" y2="83.17" gradientTransform="translate(-222.82 253.39)" xlink:href="#Orange_Yellow"/><linearGradient id="Orange_Yellow-10" x1="355.82" y1="535.09" x2="368.69" y2="512.99" gradientTransform="translate(-203.28 600.58) rotate(-90)" xlink:href="#Orange_Yellow"/><linearGradient id="Orange_Yellow-11" x1="406.22" y1="114.13" x2="415.26" y2="98.61" gradientTransform="translate(-224.36 209.55)" xlink:href="#Orange_Yellow"/><linearGradient id="Orange_Yellow-12" x1="386.65" y1="253.4" x2="399.51" y2="231.31" gradientTransform="translate(579.46 480.69) rotate(180)" xlink:href="#Orange_Yellow"/><linearGradient id="Orange_Yellow-13" x1="124.54" y1="83.3" x2="133.58" y2="67.78" gradientTransform="translate(245.21 444.98) rotate(-90)" xlink:href="#Orange_Yellow"/></defs><g id="Layer_2" data-name="Layer 2"><path class="cls-1" d="M329.87,296.25c0-50.68-22.63-74.35-73.73-68.36-41.6,4.87-39.16,17.44-67.81,21.24A98.73,98.73,0,0,1,156.39,248q-8.5-1.68-17.56-3.5c-73.41-14.88-104.39,30.11-80.2,83.18,36.2,79.43,60.72,105.6,135.62,105.6S329.87,386,329.87,327.67c0-2.93-.08-5.7-.26-8.31a.22.22,0,0,1,0-.08Z" transform="translate(-50.53 -185.33)"/><circle class="cls-1" cx="203.03" cy="91.8" r="54.8"/><rect class="cls-1" x="199.37" y="155.16" width="7.34" height="28.43" rx="3.67"/><rect class="cls-1" x="199.37" width="7.34" height="28.43" rx="3.67"/><rect class="cls-1" x="111.24" y="88.13" width="28.43" height="7.34" rx="3.67"/><rect class="cls-1" x="266.4" y="88.13" width="28.43" height="7.34" rx="3.67"/><rect class="cls-1" x="211.11" y="195.72" width="7.34" height="28.43" rx="3.67" transform="translate(-126.73 -49.81) rotate(-30)"/><rect class="cls-1" x="288.69" y="330.1" width="7.34" height="28.43" rx="3.67" transform="translate(-183.52 6.98) rotate(-30)"/><rect class="cls-1" x="278.14" y="206.27" width="28.43" height="7.34" rx="3.67" transform="translate(-86.16 172.83) rotate(-60)"/><rect class="cls-1" x="200.56" y="340.64" width="28.43" height="7.34" rx="3.67" transform="translate(-241.33 172.83) rotate(-60)"/><rect class="cls-1" x="306.54" y="234.66" width="28.43" height="7.34" rx="3.67" transform="translate(-126.73 6.98) rotate(-30)"/><rect class="cls-1" x="172.16" y="312.25" width="28.43" height="7.34" rx="3.67" transform="translate(-183.52 -49.81) rotate(-30)"/><rect class="cls-1" x="182.71" y="224.12" width="7.34" height="28.43" rx="3.67" transform="translate(-163.75 95.25) rotate(-60)"/><rect class="cls-1" x="317.09" y="301.7" width="7.34" height="28.43" rx="3.67" transform="translate(-163.75 250.41) rotate(-60)"/><path class="cls-2" d="M329.87,296.25c0-50.68-22.63-74.35-73.73-68.36-41.6,4.87-39.16,17.44-67.81,21.24A98.73,98.73,0,0,1,156.39,248q-8.5-1.68-17.56-3.5c-73.41-14.88-104.39,30.11-80.2,83.18,36.2,79.43,60.72,105.6,135.62,105.6S329.87,386,329.87,327.67c0-2.93-.08-5.7-.26-8.31a.22.22,0,0,1,0-.08Z" transform="translate(-50.53 -185.33)"/><circle class="cls-3" cx="203.03" cy="91.8" r="54.8"/><rect class="cls-4" x="199.37" y="155.16" width="7.34" height="28.43" rx="3.67"/><rect class="cls-5" x="199.37" width="7.34" height="28.43" rx="3.67"/><rect class="cls-6" x="111.24" y="88.13" width="28.43" height="7.34" rx="3.67"/><rect class="cls-7" x="266.4" y="88.13" width="28.43" height="7.34" rx="3.67"/><rect class="cls-8" x="211.11" y="195.72" width="7.34" height="28.43" rx="3.67" transform="translate(-126.73 -49.81) rotate(-30)"/><rect class="cls-9" x="288.69" y="330.1" width="7.34" height="28.43" rx="3.67" transform="translate(-183.52 6.98) rotate(-30)"/><rect class="cls-10" x="278.14" y="206.27" width="28.43" height="7.34" rx="3.67" transform="translate(-86.16 172.83) rotate(-60)"/><rect class="cls-11" x="200.56" y="340.64" width="28.43" height="7.34" rx="3.67" transform="translate(-241.33 172.83) rotate(-60)"/><rect class="cls-12" x="306.54" y="234.66" width="28.43" height="7.34" rx="3.67" transform="translate(-126.73 6.98) rotate(-30)"/><rect class="cls-13" x="172.16" y="312.25" width="28.43" height="7.34" rx="3.67" transform="translate(-183.52 -49.81) rotate(-30)"/><rect class="cls-14" x="182.71" y="224.12" width="7.34" height="28.43" rx="3.67" transform="translate(-163.75 95.25) rotate(-60)"/><rect class="cls-15" x="317.09" y="301.7" width="7.34" height="28.43" rx="3.67" transform="translate(-163.75 250.41) rotate(-60)"/></g><g id="Layer_3" data-name="Layer 3"><path class="cls-1" d="M135.43,385c.09.6-3.86,3.83-5.33,2.61a1.52,1.52,0,0,1-.45-.79c-.72-2.95-13.75-10.48-19.64-16.35s5.08-11.91,5.08-11.91h0c.33.21,6,4,5,6.22a.59.59,0,0,0,0,.13,52.86,52.86,0,0,1-1.76,6.56.5.5,0,0,0,.11.61c1.28,1.08,5.79,4.61,10.1,5a.49.49,0,0,1,.32.16C132.3,381.21,135.4,384.65,135.43,385Z" transform="translate(-50.53 -185.33)"/><path class="cls-16" d="M137.94,387.83s-7.71,8.41-10.3,8.95-2.23-4.33-1.69-4.27,4.15-4.95,4.15-4.95c1.47,1.22,5.42-2,5.33-2.61A2.42,2.42,0,0,1,137.94,387.83Z" transform="translate(-50.53 -185.33)"/><circle class="cls-17" cx="102.37" cy="218.68" r="23.24"/><circle class="cls-17" cx="26.85" cy="219.09" r="23.24"/><polygon class="cls-17" points="102.37 219 70.52 223.41 76.98 198.74 102.37 219"/><circle class="cls-18" cx="70.52" cy="223.41" r="4.32"/><path class="cls-1" d="M118.72,337.3l-3.34,5.23s-3.31,4.32-4.93,5-10.28,5-10.6,5.41-3.76,2.58-3.73,3.5-2.89,1.38-3.13.39c4.56-3,14.59-10,15.2-13,.72-3.63,5.44-9.23,6.28-10.2.33.11.68.24,1,.38A8.35,8.35,0,0,1,118.72,337.3Z" transform="translate(-50.53 -185.33)"/><path class="cls-19" d="M143.81,349.45c-3.69,3.83-19.51,1.84-19.51,1.84s-2.34-8.86-5.58-14a8.35,8.35,0,0,0-3.24-3.31c-.33-.14-.68-.27-1-.38l-.26-.09a13.49,13.49,0,0,0-1.32-.34l-.39-.07c-.64-.09-1.37-.16-2.12-.2a2.17,2.17,0,0,0-.36,0,14.78,14.78,0,0,0-4,.54l0,0c.74-8.39,4.22-15.07,5-15,2.26.27,6.28-2.85,6.28-2.85s.1-1,2.16-1c10.75-.4,24.29,23.85,24.89,32.32A3.27,3.27,0,0,1,143.81,349.45Z" transform="translate(-50.53 -185.33)"/><path class="cls-20" d="M117.27,309.08a11.37,11.37,0,0,1-1.41,5.53l-2.33-1.43a2.69,2.69,0,0,1-.27-.44L111.8,310a3.44,3.44,0,0,0,1-1.82c0-.84-.67-2-1.48-2-1.3,0-1.62,1.83-1.62,1.83l-.89,0-3.53-5.16-6,1.53a4.52,4.52,0,0,1-2.21-3.93s2.17.51,3-1,3.85-3.58,7.06-3.58,6.68,1.41,6.68,3.4C113.89,299.3,117.27,301.59,117.27,309.08Z" transform="translate(-50.53 -185.33)"/><path class="cls-21" d="M117.27,315.63s-3.21,3.83-6.28,2.85l-.34-1.34s-4.16.27-5,.18-2.28.75-4.15-5L99.75,312l.58-3.46a12.8,12.8,0,0,0-1-4.1l6-1.53L108.8,308l.89,0s.32-1.83,1.62-1.83c.81,0,1.48,1.13,1.48,2a3.44,3.44,0,0,1-1,1.82l1.46,2.78a2.69,2.69,0,0,0,.27.44l2.33,1.43Z" transform="translate(-50.53 -185.33)"/><path class="cls-17" d="M121.05,408.74S97.29,379.3,89.34,375.23l1-2.85c15.64,6.46,27.11,14.7,34.48,21.77Z" transform="translate(-50.53 -185.33)"/><polyline class="cls-17" points="46.02 171.59 39.74 171.59 43.02 179.28 26.85 219.09"/><path class="cls-21" d="M114.47,333.61c-.84,1-5.56,6.57-6.28,10.2-.61,3.06-10.64,10-15.2,13-1.35.9-2.22,1.45-2.22,1.45a3.77,3.77,0,0,1-3.93-1.67c-.54-1.51,2.86-2.7,2.86-2.7s11.27-13.06,13.23-14.58,3-5.89,3-5.89l0,0a14.78,14.78,0,0,1,4-.54,2.17,2.17,0,0,1,.36,0c.75,0,1.48.11,2.12.2l.39.07a13.49,13.49,0,0,1,1.32.34Z" transform="translate(-50.53 -185.33)"/><line class="cls-22" x1="83.25" y1="174.79" x2="70.52" y2="223.41"/><path class="cls-23" d="M144.86,354.67c2.29-.33,3.66,1.54,3.44,2.69s-4.57,3.75-6,3.52S141.68,355.14,144.86,354.67Z" transform="translate(-50.53 -185.33)"/><path class="cls-24" d="M140.55,362.15c-2.56.56-11.56,15-11.56,15h-.24c-5.16-.39-10.65-5.36-10.65-5.36.48.08,1.8-5.91,2-6.86a.59.59,0,0,1,0-.13c.94-2.26-4.7-6-5-6.22h0l9.21-7.22s15.82,2,19.51-1.84a3.27,3.27,0,0,0,.51-2.5C146.74,354,143.09,361.58,140.55,362.15Z" transform="translate(-50.53 -185.33)"/><path class="cls-21" d="M124.52,387.2c.41,1.77,4,23.8,2.32,24.92a12.29,12.29,0,0,1-3.76,1.14,2.16,2.16,0,0,1-2.64-1.64c-.73-5.82-2.63-19.84-4.42-24-2.28-5.31-.66-9-.66-9l3.36-6.35s7.44.18,9.49,4.77C120.89,382.88,124.1,385.42,124.52,387.2Z" transform="translate(-50.53 -185.33)"/><path class="cls-16" d="M130.08,416.54c-.2,1.3-14,7.59-18.27,6.33s-4.34-3.49-2.68-4.19,10.3-5.77,11.31-7.06a2.16,2.16,0,0,0,2.64,1.64,12.29,12.29,0,0,0,3.76-1.14S130.26,415.25,130.08,416.54Z" transform="translate(-50.53 -185.33)"/></g></svg>