<svg xmlns="http://www.w3.org/2000/svg" xmlns:xlink="http://www.w3.org/1999/xlink" viewBox="0 0 1413.84 984.71"><defs><style>.cls-1{fill:#dead93;}.cls-2{fill:url(#radial-gradient);}.cls-3{fill:url(#radial-gradient-2);}.cls-4{fill:url(#radial-gradient-3);}.cls-5{fill:url(#radial-gradient-4);}.cls-6{fill:url(#radial-gradient-5);}.cls-7{fill:url(#radial-gradient-6);}.cls-8{fill:url(#radial-gradient-7);}.cls-9{fill:url(#radial-gradient-8);}.cls-10{fill:url(#radial-gradient-9);}.cls-11{fill:url(#radial-gradient-10);}.cls-12{fill:url(#radial-gradient-11);}.cls-13,.cls-22,.cls-53,.cls-58{fill:none;stroke-width:3px;}.cls-13{stroke:#7d7d7d;}.cls-13,.cls-53{stroke-linecap:round;}.cls-13,.cls-22,.cls-54{stroke-miterlimit:10;}.cls-14{fill:#7d7d7d;}.cls-15{fill:url(#Orange_Yellow);}.cls-16{fill:url(#Orange_Yellow-2);}.cls-17{fill:url(#linear-gradient);}.cls-18{fill:url(#linear-gradient-2);}.cls-19{fill:url(#linear-gradient-3);}.cls-20{fill:url(#linear-gradient-4);}.cls-21{fill:url(#linear-gradient-5);}.cls-22{stroke:#dadbdc;}.cls-23{fill:url(#Orange_Yellow-3);}.cls-24{fill:#ffd921;}.cls-25{fill:#ef763d;}.cls-26{fill:#fec90e;}.cls-27{fill:#f3903f;}.cls-28{fill:#e93e3a;}.cls-29{fill:#fff33b;}.cls-30{fill:#eb573b;}.cls-31{fill:#fab525;}.cls-32{fill:#a09f9f;}.cls-33{fill:url(#linear-gradient-6);}.cls-34{fill:url(#linear-gradient-7);}.cls-35{fill:url(#linear-gradient-8);}.cls-36{fill:url(#linear-gradient-9);}.cls-37{fill:url(#linear-gradient-10);}.cls-38{fill:url(#linear-gradient-11);}.cls-39{fill:url(#linear-gradient-12);}.cls-40{fill:url(#linear-gradient-13);}.cls-41{fill:url(#linear-gradient-14);}.cls-42{fill:url(#linear-gradient-15);}.cls-43{fill:url(#linear-gradient-16);}.cls-44{fill:url(#linear-gradient-17);}.cls-45{fill:url(#linear-gradient-18);}.cls-46{fill:url(#linear-gradient-19);}.cls-47{fill:url(#linear-gradient-20);}.cls-48{fill:#dadbdc;}.cls-49{fill:url(#linear-gradient-21);}.cls-50{fill:url(#linear-gradient-22);}.cls-51{fill:url(#linear-gradient-23);}.cls-52{fill:#471111;}.cls-53,.cls-54,.cls-58{stroke:#231f20;}.cls-53,.cls-58{stroke-linejoin:round;}.cls-54{fill:#231f20;}.cls-55{fill:#ededed;}.cls-56{fill:#421312;}.cls-57{fill:#fbc3a5;}.cls-59{fill:#0d1127;}.cls-60{fill:#1b1c24;}.cls-61{fill:url(#linear-gradient-24);}.cls-62{fill:url(#linear-gradient-25);}.cls-63{fill:url(#linear-gradient-26);}.cls-64{fill:url(#Orange_Yellow-4);}.cls-65{fill:url(#linear-gradient-27);}.cls-66{fill:url(#linear-gradient-28);}.cls-67{fill:url(#linear-gradient-29);}.cls-68{fill:url(#linear-gradient-30);}.cls-69{fill:url(#Orange_Yellow-5);}.cls-70{fill:url(#Orange_Yellow-6);}.cls-71{fill:url(#linear-gradient-31);}.cls-72{fill:url(#linear-gradient-32);}.cls-73{fill:url(#linear-gradient-33);}.cls-74{fill:url(#linear-gradient-34);}.cls-75{fill:url(#linear-gradient-35);}.cls-76{fill:url(#Orange_Yellow-7);}.cls-77{fill:#e9e9ea;}</style><radialGradient id="radial-gradient" cx="88.92" cy="246.59" r="245.87" gradientUnits="userSpaceOnUse"><stop offset="0" stop-color="#b29ccb"/><stop offset="0.2" stop-color="#ab96c8"/><stop offset="0.51" stop-color="#9787c0"/><stop offset="0.87" stop-color="#766eb3"/><stop offset="1" stop-color="#6864ad"/></radialGradient><radialGradient id="radial-gradient-2" cx="485.14" cy="246.59" r="245.87" xlink:href="#radial-gradient"/><radialGradient id="radial-gradient-3" cx="855.14" cy="246.59" r="245.87" xlink:href="#radial-gradient"/><radialGradient id="radial-gradient-4" cx="844.86" cy="585.97" r="245.87" xlink:href="#radial-gradient"/><radialGradient id="radial-gradient-5" cx="844.86" cy="983.8" r="245.87" xlink:href="#radial-gradient"/><radialGradient id="radial-gradient-6" cx="1195.68" cy="245.86" r="245.87" xlink:href="#radial-gradient"/><radialGradient id="radial-gradient-7" cx="1195.68" cy="586.96" r="245.87" xlink:href="#radial-gradient"/><radialGradient id="radial-gradient-8" cx="485.14" cy="587.68" r="245.87" xlink:href="#radial-gradient"/><radialGradient id="radial-gradient-9" cx="497.88" cy="985.61" r="245.87" xlink:href="#radial-gradient"/><radialGradient id="radial-gradient-10" cx="95.37" cy="586.96" r="245.87" xlink:href="#radial-gradient"/><radialGradient id="radial-gradient-11" cx="95.37" cy="984.39" r="245.87" xlink:href="#radial-gradient"/><linearGradient id="Orange_Yellow" x1="138.85" y1="908.33" x2="186.66" y2="799.86" gradientUnits="userSpaceOnUse"><stop offset="0" stop-color="#fff33b"/><stop offset="0.04" stop-color="#fee72e"/><stop offset="0.12" stop-color="#fed51b"/><stop offset="0.2" stop-color="#fdca10"/><stop offset="0.28" stop-color="#fdc70c"/><stop offset="0.67" stop-color="#f3903f"/><stop offset="0.89" stop-color="#ed683c"/><stop offset="1" stop-color="#e93e3a"/></linearGradient><linearGradient id="Orange_Yellow-2" x1="199.41" y1="908.33" x2="247.21" y2="799.86" xlink:href="#Orange_Yellow"/><linearGradient id="linear-gradient" x1="412.13" y1="897.14" x2="420.12" y2="872.65" gradientTransform="translate(55.45 -38.26) rotate(15.36)" gradientUnits="userSpaceOnUse"><stop offset="0" stop-color="#e3e8f5"/><stop offset="0.01" stop-color="#e1e7f5"/><stop offset="0.16" stop-color="#bfdcf3"/><stop offset="0.29" stop-color="#abd5f1"/><stop offset="0.38" stop-color="#a3d2f1"/><stop offset="0.45" stop-color="#99d0f1"/><stop offset="0.63" stop-color="#86cbf0"/><stop offset="0.81" stop-color="#7bc9f0"/><stop offset="1" stop-color="#77c8f0"/></linearGradient><linearGradient id="linear-gradient-2" x1="454.13" y1="874.22" x2="462.12" y2="849.72" xlink:href="#linear-gradient"/><linearGradient id="linear-gradient-3" x1="338.58" y1="908.19" x2="346.56" y2="883.7" xlink:href="#linear-gradient"/><linearGradient id="linear-gradient-4" x1="450.99" y1="838.06" x2="458.98" y2="813.57" xlink:href="#linear-gradient"/><linearGradient id="linear-gradient-5" x1="307.67" y1="867.94" x2="315.65" y2="843.45" xlink:href="#linear-gradient"/><linearGradient id="Orange_Yellow-3" x1="924.68" y1="129.89" x2="975.8" y2="42.14" xlink:href="#Orange_Yellow"/><linearGradient id="linear-gradient-6" x1="598.18" y1="375.7" x2="606.17" y2="351.21" xlink:href="#linear-gradient"/><linearGradient id="linear-gradient-7" x1="642.82" y1="363.44" x2="650.81" y2="338.95" xlink:href="#linear-gradient"/><linearGradient id="linear-gradient-8" x1="687.96" y1="352.96" x2="695.94" y2="328.47" xlink:href="#linear-gradient"/><linearGradient id="linear-gradient-9" x1="626.87" y1="395.69" x2="634.8" y2="371.37" xlink:href="#linear-gradient"/><linearGradient id="linear-gradient-10" x1="667.06" y1="384.66" x2="674.99" y2="360.34" xlink:href="#linear-gradient"/><linearGradient id="linear-gradient-11" x1="718.35" y1="755.73" x2="726.34" y2="731.24" xlink:href="#linear-gradient"/><linearGradient id="linear-gradient-12" x1="765.37" y1="742.82" x2="773.36" y2="718.33" xlink:href="#linear-gradient"/><linearGradient id="linear-gradient-13" x1="812.4" y1="729.91" x2="820.38" y2="705.41" xlink:href="#linear-gradient"/><linearGradient id="linear-gradient-14" x1="741.89" y1="749.27" x2="749.82" y2="724.95" xlink:href="#linear-gradient"/><linearGradient id="linear-gradient-15" x1="766.97" y1="773.57" x2="774.9" y2="749.25" xlink:href="#linear-gradient"/><linearGradient id="linear-gradient-16" x1="813.9" y1="760.69" x2="821.83" y2="736.36" xlink:href="#linear-gradient"/><linearGradient id="linear-gradient-17" x1="790.43" y1="767.13" x2="798.36" y2="742.81" xlink:href="#linear-gradient"/><linearGradient id="linear-gradient-18" x1="743.5" y1="780.02" x2="751.43" y2="755.7" xlink:href="#linear-gradient"/><linearGradient id="linear-gradient-19" x1="788.91" y1="736.36" x2="796.84" y2="712.04" xlink:href="#linear-gradient"/><linearGradient id="linear-gradient-20" x1="720.03" y1="786.46" x2="727.96" y2="762.14" xlink:href="#linear-gradient"/><linearGradient id="linear-gradient-21" x1="508.18" y1="46.49" x2="516.11" y2="22.17" xlink:href="#linear-gradient"/><linearGradient id="linear-gradient-22" x1="552.51" y1="34.32" x2="560.44" y2="10" xlink:href="#linear-gradient"/><linearGradient id="linear-gradient-23" x1="597.33" y1="23.91" x2="605.26" y2="-0.41" xlink:href="#linear-gradient"/><linearGradient id="linear-gradient-24" x1="1190.97" y1="-141.01" x2="1198.9" y2="-165.33" xlink:href="#linear-gradient"/><linearGradient id="linear-gradient-25" x1="1235.3" y1="-153.18" x2="1243.23" y2="-177.51" xlink:href="#linear-gradient"/><linearGradient id="linear-gradient-26" x1="1280.12" y1="-163.59" x2="1288.05" y2="-187.91" xlink:href="#linear-gradient"/><linearGradient id="Orange_Yellow-4" x1="169.41" y1="170.68" x2="217.22" y2="62.21" xlink:href="#Orange_Yellow"/><linearGradient id="linear-gradient-27" x1="221.64" y1="121.03" x2="229.62" y2="96.53" xlink:href="#linear-gradient"/><linearGradient id="linear-gradient-28" x1="127.37" y1="184.03" x2="135.36" y2="159.53" xlink:href="#linear-gradient"/><linearGradient id="linear-gradient-29" x1="238.3" y1="156.98" x2="246.29" y2="132.49" xlink:href="#linear-gradient"/><linearGradient id="linear-gradient-30" x1="133.84" y1="145.14" x2="141.83" y2="120.64" xlink:href="#linear-gradient"/><linearGradient id="Orange_Yellow-5" x1="147.76" y1="508.83" x2="195.57" y2="400.36" xlink:href="#Orange_Yellow"/><linearGradient id="Orange_Yellow-6" x1="208.32" y1="508.83" x2="256.13" y2="400.36" xlink:href="#Orange_Yellow"/><linearGradient id="linear-gradient-31" x1="314.94" y1="509.55" x2="322.92" y2="485.06" xlink:href="#linear-gradient"/><linearGradient id="linear-gradient-32" x1="356.94" y1="486.63" x2="364.92" y2="462.13" xlink:href="#linear-gradient"/><linearGradient id="linear-gradient-33" x1="241.38" y1="520.6" x2="249.37" y2="496.11" xlink:href="#linear-gradient"/><linearGradient id="linear-gradient-34" x1="353.8" y1="450.47" x2="361.78" y2="425.98" xlink:href="#linear-gradient"/><linearGradient id="linear-gradient-35" x1="210.47" y1="480.35" x2="218.46" y2="455.86" xlink:href="#linear-gradient"/><linearGradient id="Orange_Yellow-7" x1="940.3" y1="505.12" x2="1024.68" y2="296.92" xlink:href="#Orange_Yellow"/></defs><g id="Layer_2" data-name="Layer 2"><path class="cls-1" d="M290,112.38C290,61.7,267.34,38,216.24,44c-41.6,4.87-39.15,17.44-67.81,21.24a98.74,98.74,0,0,1-31.94-1.14q-8.51-1.68-17.56-3.5C25.52,45.75-5.46,90.73,18.73,143.8c36.2,79.43,60.72,105.6,135.62,105.6S290,202.12,290,143.8c0-2.93-.08-5.7-.26-8.31v-.08Z" transform="translate(-10.63 -3.71)"/><path class="cls-1" d="M686.2,112.39C686.2,61.7,663.57,38,612.47,44c-41.6,4.87-39.16,17.44-67.81,21.24a98.45,98.45,0,0,1-31.94-1.14q-8.5-1.67-17.56-3.5C421.75,45.75,390.77,90.73,415,143.8c36.2,79.43,60.72,105.6,135.62,105.6S686.2,202.12,686.2,143.8c0-2.93-.08-5.69-.26-8.31v-.07Z" transform="translate(-10.63 -3.71)"/><path class="cls-1" d="M1056.2,112.39c0-50.69-22.64-74.35-73.73-68.37-41.6,4.87-39.16,17.44-67.82,21.24a98.39,98.39,0,0,1-31.93-1.14q-8.52-1.67-17.57-3.5C791.74,45.75,760.76,90.73,785,143.8c36.21,79.43,60.72,105.6,135.63,105.6s135.62-47.28,135.62-105.6c0-2.93-.09-5.69-.27-8.31v-.07Z" transform="translate(-10.63 -3.71)"/><path class="cls-1" d="M1045.91,451.77c0-50.69-22.63-74.35-73.72-68.37-41.61,4.87-39.16,17.44-67.82,21.24a98.66,98.66,0,0,1-31.93-1.14q-8.52-1.67-17.57-3.5c-73.41-14.87-104.39,30.11-80.2,83.18,36.2,79.43,60.72,105.6,135.62,105.6s135.62-47.28,135.62-105.6c0-2.93-.08-5.7-.26-8.31v-.08Z" transform="translate(-10.63 -3.71)"/><path class="cls-1" d="M1045.91,849.6c0-50.69-22.63-74.35-73.72-68.37-41.61,4.87-39.16,17.44-67.82,21.24a98.66,98.66,0,0,1-31.93-1.14q-8.52-1.67-17.57-3.5C781.46,783,750.48,827.94,774.67,881c36.2,79.43,60.72,105.6,135.62,105.6s135.62-47.28,135.62-105.6c0-2.93-.08-5.69-.26-8.31v-.07Z" transform="translate(-10.63 -3.71)"/><path class="cls-1" d="M1396.74,111.65c0-50.68-22.63-74.35-73.73-68.37-41.6,4.87-39.16,17.45-67.81,21.24a98.45,98.45,0,0,1-31.94-1.14q-8.51-1.66-17.56-3.5C1132.29,45,1101.31,90,1125.5,143.06c36.2,79.43,60.72,105.6,135.62,105.6s135.62-47.28,135.62-105.6c0-2.93-.08-5.69-.26-8.3,0,0,0-.06,0-.08Z" transform="translate(-10.63 -3.71)"/><path class="cls-1" d="M1396.74,452.76c0-50.69-22.63-74.35-73.73-68.37-41.6,4.87-39.16,17.44-67.81,21.24a98.73,98.73,0,0,1-31.94-1.14q-8.51-1.68-17.56-3.5c-73.41-14.87-104.39,30.11-80.2,83.18,36.2,79.43,60.72,105.6,135.62,105.6s135.62-47.28,135.62-105.6c0-2.93-.08-5.7-.26-8.31a.21.21,0,0,1,0-.08Z" transform="translate(-10.63 -3.71)"/><path class="cls-1" d="M686.2,453.47c0-50.68-22.63-74.35-73.73-68.37-41.6,4.87-39.16,17.45-67.81,21.24a98.72,98.72,0,0,1-31.94-1.13q-8.5-1.68-17.56-3.51c-73.41-14.87-104.39,30.11-80.2,83.18,36.2,79.44,60.72,105.61,135.62,105.61S686.2,543.21,686.2,484.88c0-2.93-.08-5.69-.26-8.3v-.08Z" transform="translate(-10.63 -3.71)"/><path class="cls-1" d="M698.94,851.4c0-50.68-22.64-74.35-73.73-68.37-41.6,4.87-39.16,17.45-67.82,21.25a99,99,0,0,1-31.93-1.14q-8.52-1.68-17.57-3.51c-73.41-14.87-104.39,30.11-80.2,83.18,36.21,79.44,60.72,105.61,135.62,105.61s135.63-47.28,135.63-105.61q0-4.38-.27-8.3v-.08Z" transform="translate(-10.63 -3.71)"/><path class="cls-1" d="M296.43,452.76c0-50.69-22.64-74.35-73.73-68.37-41.6,4.87-39.16,17.44-67.82,21.24A98.67,98.67,0,0,1,123,404.49q-8.52-1.68-17.57-3.5C32,386.12,1,431.1,25.18,484.17c36.21,79.43,60.72,105.6,135.63,105.6s135.62-47.28,135.62-105.6q0-4.4-.27-8.31v-.08Z" transform="translate(-10.63 -3.71)"/><path class="cls-1" d="M296.43,850.18c0-50.68-22.64-74.35-73.73-68.37-41.6,4.87-39.16,17.45-67.82,21.24A98.39,98.39,0,0,1,123,801.91q-8.52-1.67-17.57-3.5C32,783.54,1,828.52,25.18,881.59,61.39,961,85.9,987.2,160.81,987.2s135.62-47.28,135.62-105.61c0-2.93-.09-5.69-.27-8.3v-.08Z" transform="translate(-10.63 -3.71)"/><path class="cls-2" d="M290,112.38C290,61.7,267.34,38,216.24,44c-41.6,4.87-39.15,17.44-67.81,21.24a98.74,98.74,0,0,1-31.94-1.14q-8.51-1.68-17.56-3.5C25.52,45.75-5.46,90.73,18.73,143.8c36.2,79.43,60.72,105.6,135.62,105.6S290,202.12,290,143.8c0-2.93-.08-5.7-.26-8.31v-.08Z" transform="translate(-10.63 -3.71)"/><path class="cls-3" d="M686.2,112.39C686.2,61.7,663.57,38,612.47,44c-41.6,4.87-39.16,17.44-67.81,21.24a98.45,98.45,0,0,1-31.94-1.14q-8.5-1.67-17.56-3.5C421.75,45.75,390.77,90.73,415,143.8c36.2,79.43,60.72,105.6,135.62,105.6S686.2,202.12,686.2,143.8c0-2.93-.08-5.69-.26-8.31v-.07Z" transform="translate(-10.63 -3.71)"/><path class="cls-4" d="M1056.2,112.39c0-50.69-22.64-74.35-73.73-68.37-41.6,4.87-39.16,17.44-67.82,21.24a98.39,98.39,0,0,1-31.93-1.14q-8.52-1.67-17.57-3.5C791.74,45.75,760.76,90.73,785,143.8c36.21,79.43,60.72,105.6,135.63,105.6s135.62-47.28,135.62-105.6c0-2.93-.09-5.69-.27-8.31v-.07Z" transform="translate(-10.63 -3.71)"/><path class="cls-5" d="M1045.91,451.77c0-50.69-22.63-74.35-73.72-68.37-41.61,4.87-39.16,17.44-67.82,21.24a98.66,98.66,0,0,1-31.93-1.14q-8.52-1.67-17.57-3.5c-73.41-14.87-104.39,30.11-80.2,83.18,36.2,79.43,60.72,105.6,135.62,105.6s135.62-47.28,135.62-105.6c0-2.93-.08-5.7-.26-8.31v-.08Z" transform="translate(-10.63 -3.71)"/><path class="cls-6" d="M1045.91,849.6c0-50.69-22.63-74.35-73.72-68.37-41.61,4.87-39.16,17.44-67.82,21.24a98.66,98.66,0,0,1-31.93-1.14q-8.52-1.67-17.57-3.5C781.46,783,750.48,827.94,774.67,881c36.2,79.43,60.72,105.6,135.62,105.6s135.62-47.28,135.62-105.6c0-2.93-.08-5.69-.26-8.31v-.07Z" transform="translate(-10.63 -3.71)"/><path class="cls-7" d="M1396.74,111.65c0-50.68-22.63-74.35-73.73-68.37-41.6,4.87-39.16,17.45-67.81,21.24a98.45,98.45,0,0,1-31.94-1.14q-8.51-1.66-17.56-3.5C1132.29,45,1101.31,90,1125.5,143.06c36.2,79.43,60.72,105.6,135.62,105.6s135.62-47.28,135.62-105.6c0-2.93-.08-5.69-.26-8.3,0,0,0-.06,0-.08Z" transform="translate(-10.63 -3.71)"/><path class="cls-8" d="M1396.74,452.76c0-50.69-22.63-74.35-73.73-68.37-41.6,4.87-39.16,17.44-67.81,21.24a98.73,98.73,0,0,1-31.94-1.14q-8.51-1.68-17.56-3.5c-73.41-14.87-104.39,30.11-80.2,83.18,36.2,79.43,60.72,105.6,135.62,105.6s135.62-47.28,135.62-105.6c0-2.93-.08-5.7-.26-8.31a.21.21,0,0,1,0-.08Z" transform="translate(-10.63 -3.71)"/><path class="cls-9" d="M686.2,453.47c0-50.68-22.63-74.35-73.73-68.37-41.6,4.87-39.16,17.45-67.81,21.24a98.72,98.72,0,0,1-31.94-1.13q-8.5-1.68-17.56-3.51c-73.41-14.87-104.39,30.11-80.2,83.18,36.2,79.44,60.72,105.61,135.62,105.61S686.2,543.21,686.2,484.88c0-2.93-.08-5.69-.26-8.3v-.08Z" transform="translate(-10.63 -3.71)"/><path class="cls-10" d="M698.94,851.4c0-50.68-22.64-74.35-73.73-68.37-41.6,4.87-39.16,17.45-67.82,21.25a99,99,0,0,1-31.93-1.14q-8.52-1.68-17.57-3.51c-73.41-14.87-104.39,30.11-80.2,83.18,36.21,79.44,60.72,105.61,135.62,105.61s135.63-47.28,135.63-105.61q0-4.38-.27-8.3v-.08Z" transform="translate(-10.63 -3.71)"/><path class="cls-11" d="M296.43,452.76c0-50.69-22.64-74.35-73.73-68.37-41.6,4.87-39.16,17.44-67.82,21.24A98.67,98.67,0,0,1,123,404.49q-8.52-1.68-17.57-3.5C32,386.12,1,431.1,25.18,484.17c36.21,79.43,60.72,105.6,135.63,105.6s135.62-47.28,135.62-105.6q0-4.4-.27-8.31v-.08Z" transform="translate(-10.63 -3.71)"/><path class="cls-12" d="M296.43,850.18c0-50.68-22.64-74.35-73.73-68.37-41.6,4.87-39.16,17.45-67.82,21.24A98.39,98.39,0,0,1,123,801.91q-8.52-1.67-17.57-3.5C32,783.54,1,828.52,25.18,881.59,61.39,961,85.9,987.2,160.81,987.2s135.62-47.28,135.62-105.61c0-2.93-.09-5.69-.27-8.3v-.08Z" transform="translate(-10.63 -3.71)"/></g><g id="Layer_3" data-name="Layer 3"><path class="cls-13" d="M296.6,780.25a19.75,19.75,0,1,1,12,35.44H230.32" transform="translate(-10.63 -3.71)"/><path class="cls-13" d="M288,792.45a12.55,12.55,0,0,1,7-2.11c6.4,0,11.59,4.6,11.59,10.27s-5.19,10.27-11.59,10.27H249.16" transform="translate(-10.63 -3.71)"/><path class="cls-14" d="M246.1,852.55a39.24,39.24,0,0,0,0-78.47c-.44,0-.88,0-1.31,0A53.84,53.84,0,0,0,143,797h0a27.76,27.76,0,1,0,0,55.51Z" transform="translate(-10.63 -3.71)"/><polygon class="cls-15" points="141.38 815.79 186.89 815.79 171.53 868.79 186.89 869.01 168.8 927.17 156.19 887.01 135.05 887.01 141.38 815.79"/><polygon class="cls-16" points="201.94 815.79 247.44 815.79 232.08 868.79 247.44 869.01 229.35 927.17 216.75 887.01 195.61 887.01 201.94 815.79"/><path class="cls-17" d="M225.7,931.6a6.52,6.52,0,0,1-12.58-3.45c.95-3.47,9.25-14.07,10.53-13.71S226.65,928.13,225.7,931.6Z" transform="translate(-10.63 -3.71)"/><path class="cls-18" d="M272.27,920.62a6.52,6.52,0,1,1-12.58-3.46c1-3.47,9.25-14.06,10.53-13.71S273.22,917.15,272.27,920.62Z" transform="translate(-10.63 -3.71)"/><path class="cls-19" d="M151.84,922.78a6.52,6.52,0,0,1-12.58-3.45c1-3.48,9.25-14.07,10.53-13.72S152.8,919.31,151.84,922.78Z" transform="translate(-10.63 -3.71)"/><path class="cls-20" d="M278.82,884.92a6.52,6.52,0,0,1-12.58-3.45c.95-3.47,9.25-14.07,10.53-13.72S279.77,881.45,278.82,884.92Z" transform="translate(-10.63 -3.71)"/><path class="cls-21" d="M132.7,875.78a6.52,6.52,0,0,1-12.58-3.45c.95-3.48,9.25-14.07,10.53-13.72S133.65,872.31,132.7,875.78Z" transform="translate(-10.63 -3.71)"/><path class="cls-13" d="M1391.23,26a19.75,19.75,0,1,1,12,35.44h-59.43" transform="translate(-10.63 -3.71)"/><path class="cls-13" d="M1379.94,34.54a9.91,9.91,0,0,1,6.54-2.52c6,0,10.77,5.5,10.77,12.3s-4.82,12.3-10.77,12.3h-42.69" transform="translate(-10.63 -3.71)"/><path class="cls-22" d="M1342.79,408a19.75,19.75,0,1,1,12,35.43h-59.44" transform="translate(-10.63 -3.71)"/><path class="cls-22" d="M1331.5,416.56a9.94,9.94,0,0,1,6.55-2.53c6,0,10.77,5.51,10.77,12.3s-4.82,12.3-10.77,12.3h-42.7" transform="translate(-10.63 -3.71)"/><circle class="cls-23" cx="950.24" cy="86.01" r="50.77"/><rect class="cls-24" x="946.84" y="144.71" width="6.8" height="26.34" rx="3.4"/><rect class="cls-25" x="957.47" y="4.68" width="6.8" height="26.34" rx="3.4" transform="translate(1911.11 31.99) rotate(-180)"/><rect class="cls-26" x="885.61" y="76.55" width="6.8" height="26.34" rx="3.4" transform="translate(968.09 -802.99) rotate(90)"/><rect class="cls-27" x="1029.34" y="76.55" width="6.8" height="26.34" rx="3.4" transform="translate(932.39 1118.76) rotate(-90)"/><rect class="cls-27" x="921.54" y="14.31" width="6.8" height="26.34" rx="3.4" transform="matrix(-0.87, 0.5, -0.5, -0.87, 1729.07, -414.9)"/><rect class="cls-26" x="993.41" y="138.79" width="6.8" height="26.34" rx="3.4" transform="translate(46.93 515.06) rotate(-30)"/><rect class="cls-28" x="993.41" y="14.31" width="6.8" height="26.34" rx="3.4" transform="translate(1835.7 545.97) rotate(-150)"/><rect class="cls-29" x="921.54" y="138.79" width="6.8" height="26.34" rx="3.4" transform="translate(189.27 -445.82) rotate(30)"/><rect class="cls-30" x="1019.72" y="40.61" width="6.8" height="26.34" rx="3.4" transform="translate(1477.46 963.01) rotate(-120)"/><rect class="cls-24" x="895.23" y="112.48" width="6.8" height="26.34" rx="3.4" transform="translate(547.5 -719.12) rotate(60)"/><rect class="cls-31" x="895.23" y="40.61" width="6.8" height="26.34" rx="3.4" transform="translate(1383.89 -701.27) rotate(120)"/><rect class="cls-31" x="1019.72" y="112.48" width="6.8" height="26.34" rx="3.4" transform="translate(392.1 945.16) rotate(-60)"/><path class="cls-32" d="M634.76,452.16a39.24,39.24,0,0,0,0-78.48c-.43,0-.87,0-1.3,0a53.84,53.84,0,0,0-101.75,22.94h0a27.76,27.76,0,1,0,0,55.51Z" transform="translate(-10.63 -3.71)"/><path class="cls-33" d="M543.19,478.05a6.52,6.52,0,1,1-12.58-3.46c.95-3.47,9.25-14.06,10.53-13.71S544.14,474.57,543.19,478.05Z" transform="translate(-10.63 -3.71)"/><path class="cls-34" d="M589.49,478.05a6.52,6.52,0,0,1-12.58-3.46c1-3.47,9.25-14.06,10.53-13.71S590.44,474.57,589.49,478.05Z" transform="translate(-10.63 -3.71)"/><path class="cls-35" d="M635.78,479.89a6.52,6.52,0,0,1-12.58-3.45c1-3.48,9.25-14.07,10.53-13.72S636.74,476.42,635.78,479.89Z" transform="translate(-10.63 -3.71)"/><path class="cls-36" d="M565.49,505A6.48,6.48,0,1,1,553,501.52c1-3.45,9.19-14,10.46-13.61S566.44,501.5,565.49,505Z" transform="translate(-10.63 -3.71)"/><path class="cls-37" d="M607.16,505a6.48,6.48,0,1,1-12.49-3.43c1-3.45,9.19-14,10.46-13.61S608.11,501.5,607.16,505Z" transform="translate(-10.63 -3.71)"/><path class="cls-14" d="M650,850.8a39.24,39.24,0,0,0,0-78.47c-.44,0-.87,0-1.31,0A53.84,53.84,0,0,0,547,795.29h0a27.76,27.76,0,0,0,0,55.51Z" transform="translate(-10.63 -3.71)"/><path class="cls-38" d="M558.43,876.33a6.52,6.52,0,0,1-12.58-3.45c1-3.48,9.25-14.07,10.53-13.72S559.39,872.86,558.43,876.33Z" transform="translate(-10.63 -3.71)"/><path class="cls-39" d="M607.2,876.33a6.52,6.52,0,0,1-12.58-3.45c1-3.48,9.25-14.07,10.53-13.72S608.15,872.86,607.2,876.33Z" transform="translate(-10.63 -3.71)"/><path class="cls-40" d="M656,876.33a6.52,6.52,0,0,1-12.58-3.45c1-3.48,9.25-14.07,10.53-13.72S656.91,872.86,656,876.33Z" transform="translate(-10.63 -3.71)"/><path class="cls-41" d="M582.77,876.36a6.48,6.48,0,0,1-12.49-3.43c1-3.44,9.19-14,10.46-13.61S583.72,872.92,582.77,876.36Z" transform="translate(-10.63 -3.71)"/><path class="cls-42" d="M600.52,906.44A6.48,6.48,0,0,1,588,903c1-3.45,9.19-14,10.46-13.62S601.46,903,600.52,906.44Z" transform="translate(-10.63 -3.71)"/><path class="cls-43" d="M649.19,906.44A6.48,6.48,0,0,1,636.7,903c.94-3.45,9.18-14,10.45-13.62S650.13,903,649.19,906.44Z" transform="translate(-10.63 -3.71)"/><path class="cls-44" d="M624.85,906.44A6.48,6.48,0,0,1,612.36,903c.95-3.45,9.19-14,10.46-13.62S625.8,903,624.85,906.44Z" transform="translate(-10.63 -3.71)"/><path class="cls-45" d="M576.18,906.44A6.48,6.48,0,0,1,563.69,903c.95-3.45,9.18-14,10.45-13.62S577.13,903,576.18,906.44Z" transform="translate(-10.63 -3.71)"/><path class="cls-46" d="M631.53,876.36A6.48,6.48,0,0,1,619,872.93c1-3.44,9.19-14,10.46-13.61S632.48,872.92,631.53,876.36Z" transform="translate(-10.63 -3.71)"/><path class="cls-47" d="M551.84,906.44A6.48,6.48,0,0,1,539.35,903c.95-3.45,9.19-14,10.46-13.62S552.79,903,551.84,906.44Z" transform="translate(-10.63 -3.71)"/><path class="cls-48" d="M634.76,111.46a39.24,39.24,0,1,0,0-78.47c-.43,0-.87,0-1.3,0A53.84,53.84,0,0,0,531.71,56h0a27.76,27.76,0,1,0,0,55.51Z" transform="translate(-10.63 -3.71)"/><path class="cls-49" d="M543.51,136.79A6.48,6.48,0,0,1,531,133.36c1-3.45,9.19-14,10.46-13.62S544.46,133.34,543.51,136.79Z" transform="translate(-10.63 -3.71)"/><path class="cls-50" d="M589.48,136.79A6.48,6.48,0,0,1,577,133.36c1-3.45,9.19-14,10.46-13.62S590.43,133.34,589.48,136.79Z" transform="translate(-10.63 -3.71)"/><path class="cls-51" d="M635.45,138.62A6.48,6.48,0,0,1,623,135.19c.95-3.45,9.19-14,10.46-13.62S636.4,135.17,635.45,138.62Z" transform="translate(-10.63 -3.71)"/><path class="cls-1" d="M861.76,201.08c.09.61-3.87,3.83-5.33,2.61a1.42,1.42,0,0,1-.45-.78c-.72-3-13.76-10.49-19.64-16.36s5.07-11.91,5.07-11.91l0,0c.33.2,6,4,5,6.21a.59.59,0,0,0,0,.13,55.3,55.3,0,0,1-1.76,6.57.47.47,0,0,0,.11.6c1.27,1.08,5.78,4.61,10.1,5a.46.46,0,0,1,.32.15C858.63,197.34,861.72,200.79,861.76,201.08Z" transform="translate(-10.63 -3.71)"/><path class="cls-52" d="M864.27,204s-7.71,8.41-10.31,8.95-2.22-4.33-1.68-4.26,4.15-5,4.15-5c1.46,1.22,5.42-2,5.33-2.61A2.43,2.43,0,0,1,864.27,204Z" transform="translate(-10.63 -3.71)"/><circle class="cls-53" cx="868.59" cy="216.43" r="23.24"/><circle class="cls-53" cx="793.07" cy="216.84" r="23.24"/><polygon class="cls-53" points="868.6 216.75 836.75 221.16 843.21 196.49 868.6 216.75"/><circle class="cls-54" cx="836.75" cy="221.16" r="4.32"/><path class="cls-1" d="M845.05,153.43l-3.34,5.23s-3.32,4.32-4.93,5-10.28,5-10.6,5.41-3.77,2.58-3.73,3.51-2.89,1.37-3.13.38c4.56-3,14.59-10,15.19-13,.72-3.64,5.45-9.24,6.29-10.2a10.27,10.27,0,0,1,1,.37A8.48,8.48,0,0,1,845.05,153.43Z" transform="translate(-10.63 -3.71)"/><path class="cls-55" d="M870.14,165.59c-3.69,3.83-19.52,1.83-19.52,1.83s-2.33-8.86-5.57-14a8.48,8.48,0,0,0-3.24-3.31,10.27,10.27,0,0,0-1-.37,1.14,1.14,0,0,0-.26-.09c-.45-.14-.89-.26-1.32-.35a2.63,2.63,0,0,0-.39-.06c-.64-.09-1.37-.17-2.12-.21h-.36a14.78,14.78,0,0,0-4,.54h0c.75-8.39,4.23-15.07,5-15,2.27.27,6.29-2.85,6.29-2.85s.1-1,2.15-1c10.76-.4,24.3,23.86,24.9,32.32A3.31,3.31,0,0,1,870.14,165.59Z" transform="translate(-10.63 -3.71)"/><path class="cls-56" d="M843.6,125.21a11.37,11.37,0,0,1-1.42,5.54l-2.32-1.44a2.69,2.69,0,0,1-.27-.44l-1.47-2.77a3.44,3.44,0,0,0,1-1.83c0-.83-.66-2-1.47-2-1.3,0-1.62,1.82-1.62,1.82l-.89,0L831.6,119l-6,1.53a4.52,4.52,0,0,1-2.21-3.93s2.17.51,3-1,3.86-3.58,7.07-3.58,6.68,1.41,6.68,3.4C840.22,115.43,843.6,117.72,843.6,125.21Z" transform="translate(-10.63 -3.71)"/><path class="cls-57" d="M843.6,131.76s-3.21,3.83-6.29,2.85l-.33-1.33s-4.16.27-5,.18-2.27.74-4.15-5l-1.76-.35.58-3.47a13,13,0,0,0-1-4.1l6-1.53,3.53,5.17.89,0s.32-1.82,1.62-1.82c.81,0,1.47,1.13,1.47,2a3.44,3.44,0,0,1-1,1.83l1.47,2.77a2.69,2.69,0,0,0,.27.44l2.32,1.44Z" transform="translate(-10.63 -3.71)"/><path class="cls-53" d="M847.38,224.87s-23.76-29.43-31.71-33.51l1.05-2.84c15.64,6.45,27.1,14.69,34.48,21.77Z" transform="translate(-10.63 -3.71)"/><polyline class="cls-53" points="812.25 169.34 805.97 169.34 809.25 177.04 793.07 216.84"/><path class="cls-57" d="M840.8,149.75c-.84,1-5.57,6.56-6.29,10.2-.6,3.05-10.63,10-15.19,13-1.35.9-2.23,1.46-2.23,1.46a3.79,3.79,0,0,1-3.93-1.67c-.54-1.52,2.87-2.7,2.87-2.7s11.26-13.07,13.23-14.58,3-5.9,3-5.9h0a14.78,14.78,0,0,1,4-.54h.36c.75,0,1.48.12,2.12.21a2.63,2.63,0,0,1,.39.06c.43.09.87.21,1.32.35A1.14,1.14,0,0,1,840.8,149.75Z" transform="translate(-10.63 -3.71)"/><line class="cls-58" x1="849.48" y1="172.54" x2="836.75" y2="221.16"/><path class="cls-59" d="M871.19,170.81c2.29-.34,3.66,1.54,3.44,2.69s-4.57,3.74-6,3.51S868,171.28,871.19,170.81Z" transform="translate(-10.63 -3.71)"/><path class="cls-60" d="M866.87,178.28c-2.55.56-11.56,14.95-11.56,14.95h-.23c-5.16-.39-10.65-5.36-10.65-5.36.48.08,1.8-5.91,2-6.86a.59.59,0,0,1,0-.13c.94-2.26-4.7-6-5-6.21l0,0,9.21-7.22s15.83,2,19.52-1.83a3.31,3.31,0,0,0,.51-2.51C873.07,170.1,869.42,177.71,866.87,178.28Z" transform="translate(-10.63 -3.71)"/><path class="cls-57" d="M850.84,203.33c.41,1.77,4,23.8,2.33,24.92a12.24,12.24,0,0,1-3.77,1.15,2.16,2.16,0,0,1-2.63-1.65c-.73-5.82-2.63-19.83-4.42-24-2.29-5.32-.67-9-.67-9l3.37-6.36s7.44.18,9.49,4.78C847.22,199,850.43,201.56,850.84,203.33Z" transform="translate(-10.63 -3.71)"/><path class="cls-52" d="M856.4,232.67c-.19,1.3-14,7.59-18.26,6.33s-4.35-3.49-2.69-4.18,10.3-5.77,11.32-7.07a2.16,2.16,0,0,0,2.63,1.65,12.24,12.24,0,0,0,3.77-1.15S856.58,231.39,856.4,232.67Z" transform="translate(-10.63 -3.71)"/><path class="cls-1" d="M851.48,540.46c.09.6-3.87,3.83-5.34,2.61a1.51,1.51,0,0,1-.44-.79c-.72-2.95-13.76-10.48-19.65-16.35S831.13,514,831.13,514h0c.33.21,6,4,5,6.22a.31.31,0,0,0,0,.13,53.45,53.45,0,0,1-1.76,6.57.49.49,0,0,0,.12.6c1.27,1.08,5.78,4.61,10.09,5a.44.44,0,0,1,.32.15C848.34,536.72,851.44,540.16,851.48,540.46Z" transform="translate(-10.63 -3.71)"/><path class="cls-52" d="M854,543.34s-7.71,8.41-10.3,8.95S841.46,548,842,548s4.14-5,4.14-5c1.47,1.22,5.43-2,5.34-2.61A2.42,2.42,0,0,1,854,543.34Z" transform="translate(-10.63 -3.71)"/><circle class="cls-53" cx="858.31" cy="555.81" r="23.24"/><circle class="cls-53" cx="782.79" cy="556.22" r="23.24"/><polygon class="cls-53" points="858.31 556.13 826.46 560.54 832.92 535.87 858.31 556.13"/><circle class="cls-54" cx="826.46" cy="560.54" r="4.32"/><path class="cls-1" d="M834.76,492.81,831.42,498s-3.31,4.32-4.93,5-10.28,5-10.6,5.41-3.76,2.58-3.72,3.51-2.89,1.37-3.14.38c4.56-3,14.6-10,15.2-13,.72-3.64,5.45-9.24,6.28-10.2.33.1.68.23,1,.37A8.4,8.4,0,0,1,834.76,492.81Z" transform="translate(-10.63 -3.71)"/><path class="cls-55" d="M859.85,505c-3.68,3.82-19.51,1.83-19.51,1.83s-2.34-8.86-5.58-14a8.4,8.4,0,0,0-3.23-3.31c-.34-.14-.69-.27-1-.37a1.14,1.14,0,0,0-.26-.09,11.22,11.22,0,0,0-1.32-.35l-.38-.07c-.65-.09-1.38-.16-2.12-.2h-.36a14.19,14.19,0,0,0-4,.54h0c.74-8.39,4.23-15.07,5-15,2.26.27,6.28-2.85,6.28-2.85s.1-1,2.16-1c10.75-.4,24.29,23.85,24.9,32.32A3.31,3.31,0,0,1,859.85,505Z" transform="translate(-10.63 -3.71)"/><path class="cls-56" d="M833.31,464.59a11.43,11.43,0,0,1-1.41,5.54l-2.33-1.44a2.69,2.69,0,0,1-.27-.44l-1.46-2.77a3.44,3.44,0,0,0,1-1.83c0-.83-.67-2-1.48-2-1.3,0-1.62,1.82-1.62,1.82l-.88,0-3.54-5.17-5.95,1.53a4.5,4.5,0,0,1-2.2-3.93s2.17.51,3-1,3.85-3.58,7.06-3.58,6.68,1.41,6.68,3.4C829.93,454.81,833.31,457.1,833.31,464.59Z" transform="translate(-10.63 -3.71)"/><path class="cls-57" d="M833.31,471.14S830.1,475,827,474l-.33-1.33s-4.17.27-5,.18-2.28.74-4.15-5l-1.76-.34.58-3.47a12.8,12.8,0,0,0-1-4.1l5.95-1.53,3.54,5.17.88,0s.32-1.82,1.62-1.82c.81,0,1.48,1.13,1.48,2a3.44,3.44,0,0,1-1,1.83l1.46,2.77a2.69,2.69,0,0,0,.27.44l2.33,1.44Z" transform="translate(-10.63 -3.71)"/><path class="cls-53" d="M837.1,564.25s-23.77-29.43-31.72-33.51l1.06-2.85c15.63,6.46,27.1,14.7,34.47,21.77Z" transform="translate(-10.63 -3.71)"/><polyline class="cls-53" points="801.96 508.72 795.68 508.72 798.96 516.42 782.79 556.22"/><path class="cls-57" d="M830.51,489.13c-.83,1-5.56,6.56-6.28,10.2-.6,3.05-10.64,10-15.2,13-1.35.9-2.22,1.45-2.22,1.45a3.77,3.77,0,0,1-3.93-1.67c-.54-1.51,2.86-2.69,2.86-2.69S817,496.37,819,494.86s3-5.9,3-5.9h0a14.19,14.19,0,0,1,4-.54h.36c.74,0,1.47.11,2.12.2l.38.07a11.22,11.22,0,0,1,1.32.35A1.14,1.14,0,0,1,830.51,489.13Z" transform="translate(-10.63 -3.71)"/><line class="cls-58" x1="839.19" y1="511.92" x2="826.46" y2="560.54"/><path class="cls-59" d="M860.9,510.19c2.29-.34,3.66,1.54,3.44,2.68s-4.57,3.75-6,3.52S857.72,510.66,860.9,510.19Z" transform="translate(-10.63 -3.71)"/><path class="cls-60" d="M856.59,517.66c-2.56.56-11.56,15-11.56,15h-.23c-5.17-.39-10.65-5.36-10.65-5.36.47.08,1.79-5.91,2-6.86a.31.31,0,0,1,0-.13c.93-2.26-4.71-6-5-6.22h0l9.21-7.22s15.83,2,19.51-1.83a3.31,3.31,0,0,0,.52-2.51C862.78,509.47,859.13,517.09,856.59,517.66Z" transform="translate(-10.63 -3.71)"/><path class="cls-57" d="M840.56,542.71c.41,1.77,4,23.8,2.32,24.92a12,12,0,0,1-3.76,1.14,2.16,2.16,0,0,1-2.64-1.64c-.73-5.82-2.63-19.84-4.41-24-2.29-5.32-.67-9-.67-9l3.36-6.36s7.44.18,9.5,4.78C836.93,538.39,840.15,540.94,840.56,542.71Z" transform="translate(-10.63 -3.71)"/><path class="cls-52" d="M846.12,572.05c-.19,1.3-14,7.59-18.27,6.33s-4.34-3.49-2.68-4.19,10.3-5.76,11.31-7.06a2.16,2.16,0,0,0,2.64,1.64,12,12,0,0,0,3.76-1.14S846.3,570.76,846.12,572.05Z" transform="translate(-10.63 -3.71)"/><path class="cls-48" d="M1342.83,111.46a39.24,39.24,0,0,0,0-78.47c-.44,0-.87,0-1.31,0A53.84,53.84,0,0,0,1239.77,56h0a27.76,27.76,0,0,0,0,55.51Z" transform="translate(-10.63 -3.71)"/><path class="cls-61" d="M1251.58,136.79a6.48,6.48,0,0,1-12.5-3.43c1-3.45,9.19-14,10.46-13.62S1252.52,133.34,1251.58,136.79Z" transform="translate(-10.63 -3.71)"/><path class="cls-62" d="M1297.55,136.79a6.48,6.48,0,0,1-12.49-3.43c.94-3.45,9.18-14,10.45-13.62S1298.49,133.34,1297.55,136.79Z" transform="translate(-10.63 -3.71)"/><path class="cls-63" d="M1343.52,138.62a6.48,6.48,0,1,1-12.49-3.43c.94-3.45,9.18-14,10.45-13.62S1344.46,135.17,1343.52,138.62Z" transform="translate(-10.63 -3.71)"/><path class="cls-14" d="M250.74,111.46a39.24,39.24,0,0,0,0-78.47c-.44,0-.88,0-1.31,0A53.84,53.84,0,0,0,147.68,56h0a27.76,27.76,0,1,0,0,55.51Z" transform="translate(-10.63 -3.71)"/><polygon class="cls-64" points="171.94 78.15 217.45 78.15 202.09 131.14 217.45 131.37 199.35 189.52 186.75 149.36 165.61 149.36 171.94 78.15"/><path class="cls-65" d="M247.53,132.75A6.52,6.52,0,0,1,235,129.29c1-3.47,9.25-14.06,10.53-13.71S248.48,129.27,247.53,132.75Z" transform="translate(-10.63 -3.71)"/><path class="cls-66" d="M140,168.54a6.52,6.52,0,1,1-12.58-3.46c.95-3.47,9.25-14.06,10.53-13.71S140.9,165.06,140,168.54Z" transform="translate(-10.63 -3.71)"/><path class="cls-67" d="M254.07,171.83a6.52,6.52,0,0,1-12.58-3.45c1-3.47,9.26-14.06,10.53-13.71S255,168.36,254.07,171.83Z" transform="translate(-10.63 -3.71)"/><path class="cls-68" d="M156.48,132.75a6.52,6.52,0,0,1-12.58-3.46c1-3.47,9.25-14.06,10.53-13.71S157.44,129.27,156.48,132.75Z" transform="translate(-10.63 -3.71)"/><path class="cls-14" d="M255,453.06a39.24,39.24,0,1,0,0-78.47c-.44,0-.87,0-1.31,0A53.84,53.84,0,0,0,152,397.55h0a27.76,27.76,0,0,0,0,55.51Z" transform="translate(-10.63 -3.71)"/><polygon class="cls-69" points="150.3 416.3 195.8 416.3 180.44 469.3 195.8 469.52 177.71 527.68 165.11 487.52 143.97 487.52 150.3 416.3"/><polygon class="cls-70" points="210.85 416.3 256.36 416.3 241 469.3 256.36 469.52 238.26 527.68 225.66 487.52 204.52 487.52 210.85 416.3"/><path class="cls-71" d="M234.61,532.11A6.52,6.52,0,0,1,222,528.66c1-3.48,9.25-14.07,10.53-13.72S235.57,528.64,234.61,532.11Z" transform="translate(-10.63 -3.71)"/><path class="cls-72" d="M281.18,521.13a6.52,6.52,0,1,1-12.57-3.46c.95-3.47,9.25-14.06,10.53-13.71S282.14,517.65,281.18,521.13Z" transform="translate(-10.63 -3.71)"/><path class="cls-73" d="M160.76,523.29a6.52,6.52,0,1,1-12.58-3.46c.95-3.47,9.25-14.06,10.53-13.71S161.71,519.82,160.76,523.29Z" transform="translate(-10.63 -3.71)"/><path class="cls-74" d="M287.73,485.43A6.52,6.52,0,0,1,275.15,482c1-3.48,9.25-14.07,10.53-13.72S288.68,482,287.73,485.43Z" transform="translate(-10.63 -3.71)"/><path class="cls-75" d="M141.61,476.29A6.52,6.52,0,1,1,129,472.83c.95-3.47,9.25-14.06,10.53-13.71S142.56,472.82,141.61,476.29Z" transform="translate(-10.63 -3.71)"/><path class="cls-76" d="M1020.63,428.81A85,85,0,0,1,894.32,503c37.06-2.47,69.73-35.25,76.32-79.52,4.53-30.43-4.31-59.27-21.55-78.6A85,85,0,0,1,1020.63,428.81Z" transform="translate(-10.63 -3.71)"/><path class="cls-1" d="M851.48,938.29c.09.6-3.87,3.83-5.34,2.61a1.51,1.51,0,0,1-.44-.79c-.72-3-13.76-10.48-19.65-16.35s5.08-11.91,5.08-11.91v0c.33.2,6,4,5,6.21a.31.31,0,0,0,0,.13,53.45,53.45,0,0,1-1.76,6.57.49.49,0,0,0,.12.6c1.27,1.08,5.78,4.61,10.09,5a.44.44,0,0,1,.32.15C848.34,934.55,851.44,938,851.48,938.29Z" transform="translate(-10.63 -3.71)"/><path class="cls-52" d="M854,941.17s-7.71,8.41-10.3,9-2.22-4.33-1.68-4.26,4.14-5,4.14-5c1.47,1.22,5.43-2,5.34-2.61A2.42,2.42,0,0,1,854,941.17Z" transform="translate(-10.63 -3.71)"/><circle class="cls-53" cx="858.31" cy="953.64" r="23.24"/><circle class="cls-53" cx="782.79" cy="954.05" r="23.24"/><polygon class="cls-53" points="858.31 953.96 826.46 958.37 832.92 933.7 858.31 953.96"/><circle class="cls-54" cx="826.46" cy="958.37" r="4.32"/><path class="cls-1" d="M834.76,890.64l-3.34,5.23s-3.31,4.32-4.93,5-10.28,5-10.6,5.41-3.76,2.58-3.72,3.51-2.89,1.37-3.14.38c4.56-3,14.6-10,15.2-13,.72-3.64,5.45-9.24,6.28-10.2.33.1.68.23,1,.37A8.4,8.4,0,0,1,834.76,890.64Z" transform="translate(-10.63 -3.71)"/><path class="cls-55" d="M859.85,902.8c-3.68,3.82-19.51,1.83-19.51,1.83s-2.34-8.86-5.58-14a8.4,8.4,0,0,0-3.23-3.31c-.34-.14-.69-.27-1-.37a1.14,1.14,0,0,0-.26-.09,13.59,13.59,0,0,0-1.32-.35l-.38-.06c-.65-.09-1.38-.17-2.12-.21h-.36a14.62,14.62,0,0,0-4,.54h0c.74-8.39,4.23-15.07,5-15,2.26.27,6.28-2.85,6.28-2.85s.1-1,2.16-1c10.75-.4,24.29,23.86,24.9,32.32A3.31,3.31,0,0,1,859.85,902.8Z" transform="translate(-10.63 -3.71)"/><path class="cls-56" d="M833.31,862.42A11.43,11.43,0,0,1,831.9,868l-2.33-1.44a2.69,2.69,0,0,1-.27-.44l-1.46-2.77a3.44,3.44,0,0,0,1-1.83c0-.83-.67-2-1.48-2-1.3,0-1.62,1.82-1.62,1.82l-.88,0-3.54-5.17-5.95,1.53a4.5,4.5,0,0,1-2.2-3.93s2.17.51,3-1,3.85-3.58,7.06-3.58,6.68,1.41,6.68,3.4C829.93,852.64,833.31,854.93,833.31,862.42Z" transform="translate(-10.63 -3.71)"/><path class="cls-57" d="M833.31,869s-3.21,3.83-6.28,2.85l-.33-1.33s-4.17.27-5,.18-2.28.74-4.15-5l-1.76-.34.58-3.47a12.8,12.8,0,0,0-1-4.1l5.95-1.53,3.54,5.17.88,0s.32-1.82,1.62-1.82c.81,0,1.48,1.13,1.48,2a3.44,3.44,0,0,1-1,1.83l1.46,2.77a2.69,2.69,0,0,0,.27.44L831.9,868Z" transform="translate(-10.63 -3.71)"/><path class="cls-53" d="M837.1,962.08s-23.77-29.43-31.72-33.51l1.06-2.85c15.63,6.46,27.1,14.7,34.47,21.77Z" transform="translate(-10.63 -3.71)"/><polyline class="cls-53" points="801.96 906.55 795.68 906.55 798.96 914.25 782.79 954.05"/><path class="cls-57" d="M830.51,887c-.83,1-5.56,6.56-6.28,10.2-.6,3.05-10.64,10-15.2,13-1.35.9-2.22,1.45-2.22,1.45a3.77,3.77,0,0,1-3.93-1.67c-.54-1.51,2.86-2.69,2.86-2.69S817,894.2,819,892.69s3-5.9,3-5.9h0a14.62,14.62,0,0,1,4-.54h.36c.74,0,1.47.12,2.12.21l.38.06a13.59,13.59,0,0,1,1.32.35A1.14,1.14,0,0,1,830.51,887Z" transform="translate(-10.63 -3.71)"/><line class="cls-58" x1="839.19" y1="909.75" x2="826.46" y2="958.37"/><path class="cls-59" d="M860.9,908c2.29-.34,3.66,1.54,3.44,2.69s-4.57,3.74-6,3.51S857.72,908.49,860.9,908Z" transform="translate(-10.63 -3.71)"/><path class="cls-60" d="M856.59,915.49c-2.56.56-11.56,15-11.56,15h-.23c-5.17-.39-10.65-5.36-10.65-5.36.47.08,1.79-5.91,2-6.86a.31.31,0,0,1,0-.13c.93-2.26-4.71-6-5-6.21v0l9.21-7.22s15.83,2,19.51-1.83a3.31,3.31,0,0,0,.52-2.51C862.78,907.31,859.13,914.92,856.59,915.49Z" transform="translate(-10.63 -3.71)"/><path class="cls-57" d="M840.56,940.54c.41,1.77,4,23.8,2.32,24.92a12,12,0,0,1-3.76,1.14,2.16,2.16,0,0,1-2.64-1.64c-.73-5.82-2.63-19.84-4.41-24-2.29-5.32-.67-9-.67-9l3.36-6.36s7.44.18,9.5,4.78C836.93,936.22,840.15,938.77,840.56,940.54Z" transform="translate(-10.63 -3.71)"/><path class="cls-52" d="M846.12,969.88c-.19,1.3-14,7.59-18.27,6.33s-4.34-3.49-2.68-4.18,10.3-5.77,11.31-7.07a2.16,2.16,0,0,0,2.64,1.64,12,12,0,0,0,3.76-1.14S846.3,968.6,846.12,969.88Z" transform="translate(-10.63 -3.71)"/><path class="cls-48" d="M1021.54,850.8a39.24,39.24,0,1,0,0-78.47c-.44,0-.87,0-1.31,0a53.84,53.84,0,0,0-101.74,22.93h0a27.76,27.76,0,0,0,0,55.51Z" transform="translate(-10.63 -3.71)"/><path class="cls-77" d="M984.85,869.49a39.24,39.24,0,1,0,0-78.47c-.43,0-.87,0-1.3,0A53.84,53.84,0,0,0,881.8,814h0a27.76,27.76,0,1,0,0,55.51Z" transform="translate(-10.63 -3.71)"/><path class="cls-1" d="M1202.3,541.45c.09.6-3.86,3.83-5.33,2.61a1.52,1.52,0,0,1-.45-.79c-.72-2.95-13.76-10.48-19.64-16.35S1182,515,1182,515h0c.33.21,6,4,5,6.22a.59.59,0,0,0,0,.13,53.45,53.45,0,0,1-1.76,6.57.49.49,0,0,0,.11.6c1.28,1.08,5.79,4.61,10.1,5a.49.49,0,0,1,.32.16C1199.17,537.71,1202.27,541.15,1202.3,541.45Z" transform="translate(-10.63 -3.71)"/><path class="cls-52" d="M1204.81,544.33s-7.71,8.41-10.3,8.95-2.23-4.33-1.69-4.26,4.15-5,4.15-5c1.47,1.22,5.42-2,5.33-2.61A2.42,2.42,0,0,1,1204.81,544.33Z" transform="translate(-10.63 -3.71)"/><circle class="cls-53" cx="1209.14" cy="556.8" r="23.24"/><circle class="cls-53" cx="1133.62" cy="557.21" r="23.24"/><polygon class="cls-53" points="1209.14 557.12 1177.29 561.53 1183.75 536.86 1209.14 557.12"/><circle class="cls-54" cx="1177.29" cy="561.53" r="4.32"/><path class="cls-1" d="M1185.59,493.8l-3.34,5.23s-3.31,4.32-4.93,5-10.28,5-10.6,5.41S1163,512,1163,513s-2.89,1.37-3.13.38c4.56-3,14.59-10,15.2-13,.72-3.64,5.44-9.24,6.28-10.2a10.27,10.27,0,0,1,1,.37A8.42,8.42,0,0,1,1185.59,493.8Z" transform="translate(-10.63 -3.71)"/><path class="cls-55" d="M1210.68,506c-3.69,3.82-19.51,1.83-19.51,1.83s-2.34-8.86-5.58-14a8.42,8.42,0,0,0-3.24-3.31,10.27,10.27,0,0,0-1-.37,1.14,1.14,0,0,0-.26-.09,11.22,11.22,0,0,0-1.32-.35l-.39-.07c-.64-.09-1.37-.16-2.12-.2h-.36a14.35,14.35,0,0,0-4,.54h0c.74-8.39,4.22-15.07,5-15,2.26.27,6.28-2.85,6.28-2.85s.1-1,2.16-1c10.75-.4,24.29,23.85,24.89,32.32A3.31,3.31,0,0,1,1210.68,506Z" transform="translate(-10.63 -3.71)"/><path class="cls-56" d="M1184.14,465.58a11.43,11.43,0,0,1-1.41,5.54l-2.33-1.44a2.69,2.69,0,0,1-.27-.44l-1.46-2.77a3.44,3.44,0,0,0,1-1.83c0-.83-.67-2-1.48-2-1.3,0-1.62,1.82-1.62,1.82l-.89,0-3.53-5.17-6,1.53A4.52,4.52,0,0,1,1164,457s2.17.51,3-1,3.85-3.58,7.06-3.58,6.68,1.41,6.68,3.4C1180.76,455.8,1184.14,458.09,1184.14,465.58Z" transform="translate(-10.63 -3.71)"/><path class="cls-57" d="M1184.14,472.13s-3.21,3.83-6.28,2.85l-.34-1.33s-4.16.27-5,.18-2.28.74-4.15-5l-1.76-.34.58-3.47a12.8,12.8,0,0,0-1-4.1l6-1.53,3.53,5.17.89,0s.32-1.82,1.62-1.82c.81,0,1.48,1.13,1.48,2a3.44,3.44,0,0,1-1,1.83l1.46,2.77a2.69,2.69,0,0,0,.27.44l2.33,1.44Z" transform="translate(-10.63 -3.71)"/><path class="cls-53" d="M1187.92,565.24s-23.76-29.43-31.71-33.51l1-2.85c15.64,6.46,27.11,14.7,34.48,21.77Z" transform="translate(-10.63 -3.71)"/><polyline class="cls-53" points="1152.79 509.71 1146.51 509.71 1149.79 517.41 1133.62 557.21"/><path class="cls-57" d="M1181.34,490.12c-.84,1-5.56,6.56-6.28,10.2-.61,3.05-10.64,10-15.2,13-1.35.9-2.22,1.45-2.22,1.45a3.77,3.77,0,0,1-3.93-1.67c-.54-1.51,2.86-2.69,2.86-2.69s11.27-13.07,13.23-14.59,3-5.89,3-5.89h0a14.35,14.35,0,0,1,4-.54h.36c.75,0,1.48.11,2.12.2l.39.07a11.22,11.22,0,0,1,1.32.35A1.14,1.14,0,0,1,1181.34,490.12Z" transform="translate(-10.63 -3.71)"/><line class="cls-58" x1="1190.02" y1="512.91" x2="1177.29" y2="561.53"/><path class="cls-59" d="M1211.73,511.18c2.29-.34,3.66,1.54,3.44,2.68s-4.57,3.75-6,3.52S1208.55,511.64,1211.73,511.18Z" transform="translate(-10.63 -3.71)"/><path class="cls-60" d="M1207.42,518.65c-2.56.56-11.56,15-11.56,15h-.24c-5.16-.39-10.65-5.36-10.65-5.36.48.08,1.8-5.91,2-6.86a.59.59,0,0,1,0-.13c.94-2.26-4.7-6-5-6.22h0l9.21-7.22s15.82,2,19.51-1.83a3.31,3.31,0,0,0,.51-2.51C1213.61,510.46,1210,518.08,1207.42,518.65Z" transform="translate(-10.63 -3.71)"/><path class="cls-57" d="M1191.38,543.7c.42,1.77,4,23.8,2.33,24.92a12,12,0,0,1-3.76,1.14,2.16,2.16,0,0,1-2.64-1.64c-.73-5.82-2.63-19.84-4.42-24-2.28-5.32-.66-9-.66-9l3.36-6.36s7.44.18,9.49,4.78C1187.76,539.38,1191,541.93,1191.38,543.7Z" transform="translate(-10.63 -3.71)"/><path class="cls-52" d="M1197,573c-.2,1.3-14,7.59-18.27,6.33s-4.34-3.49-2.69-4.19,10.31-5.76,11.32-7.06a2.16,2.16,0,0,0,2.64,1.64,12,12,0,0,0,3.76-1.14S1197.13,571.75,1197,573Z" transform="translate(-10.63 -3.71)"/></g></svg>