<svg xmlns="http://www.w3.org/2000/svg" xmlns:xlink="http://www.w3.org/1999/xlink" width="207" height="167" viewBox="0 0 207 167">
  <defs>
    <clipPath id="clip-west">
      <rect width="207" height="167"/>
    </clipPath>
  </defs>
  <g id="west" clip-path="url(#clip-west)">
    <path id="SGP4872" d="M164.647,154.274l1.291,12.77-.646,8.286,2.547,9.578,9.578,10.223,8.932,5.13,11.515,4.448,6.816,1.829-2.8,3.372-5.166,2.188-12.663,1.937-24.07-.466-11.874-3.049-5.058-5.919-8.43-13.524-20.483-9.4L89.532,175.94l-21.128-2.3-42.831,1.112L8.139,170.524,1,156.857l4.269-15.568L34.719,99.569l4.233-18.653,4.914-10.51,11.049-11.3,13.093-7.964,9.47-1.542L99,52.4l22.133-2.8-1.148,9.506L118.05,69.975l-.61,8.286V89.776l5.094,7.031,7.031,6.995,6.995,5.775,9.578,7.641.646,6.385-3.838,4.484-3.8,3.838,1.9,4.448,7.641,2.583,7.677,6.385,8.286,8.932Z" transform="translate(0 -48.166)" fill="#b79ced" stroke="#fff" stroke-linecap="round" stroke-linejoin="round" stroke-width="2"/>
  </g>
</svg>
